<?xml version="1.0" encoding="utf-8"?>
<!-- Generator: Adobe Illustrator 21.1.0, SVG Export Plug-In . SVG Version: 6.00 Build 0)  -->
<svg version="1.1" id="Слой_1" xmlns="http://www.w3.org/2000/svg" xmlns:xlink="http://www.w3.org/1999/xlink" x="0px" y="0px"
	 viewBox="0 0 67.912 55.625" style="enable-background:new 0 0 67.912 55.625;" xml:space="preserve">
<style type="text/css">
	.st0{fill:#9C4D47;}
</style>
<g>
	<g>
		<g>
			<path class="st0" d="M28.111,55.625c-1.281,0-2.561-0.487-3.536-1.462L1.46,31.047C0.519,30.106,0,28.851,0,27.512
				s0.519-2.594,1.46-3.535l10.827-10.828c0.941-0.941,2.196-1.459,3.535-1.459s2.595,0.518,3.536,1.459l6.631,6.632
				c1.127,1.127,3.115,1.126,4.243,0L48.553,1.459C49.494,0.518,50.749,0,52.088,0s2.595,0.518,3.536,1.459l10.827,10.827
				c1.949,1.949,1.949,5.121,0,7.07c-0.39,0.391-1.023,0.391-1.414,0c-0.391-0.39-0.391-1.023,0-1.414
				c1.169-1.169,1.169-3.073,0-4.242L54.21,2.874c-1.128-1.127-3.117-1.128-4.243,0L31.646,21.195
				c-0.941,0.941-2.197,1.46-3.536,1.46s-2.594-0.519-3.535-1.46l-6.631-6.632c-1.128-1.127-3.116-1.128-4.243,0L2.874,25.391
				C2.311,25.955,2,26.708,2,27.512s0.311,1.558,0.874,2.121l23.115,23.115c1.169,1.169,3.073,1.17,4.244,0l16.483-16.483
				c0.391-0.391,1.023-0.391,1.414,0s0.391,1.023,0,1.414L31.646,54.163C30.672,55.137,29.391,55.625,28.111,55.625z"/>
		</g>
		<g>
			<path class="st0" d="M28.111,55.625c-1.281,0-2.561-0.487-3.536-1.462L1.46,31.047C0.519,30.106,0,28.851,0,27.512
				s0.519-2.594,1.46-3.535l10.827-10.828c0.941-0.941,2.196-1.459,3.535-1.459s2.595,0.518,3.536,1.459l6.631,6.632
				c1.127,1.127,3.115,1.126,4.243,0L48.553,1.459C49.494,0.518,50.749,0,52.088,0s2.595,0.518,3.536,1.459l10.827,10.827
				c1.949,1.949,1.949,5.121,0,7.07c-0.39,0.391-1.023,0.391-1.414,0c-0.391-0.39-0.391-1.023,0-1.414
				c1.169-1.169,1.169-3.073,0-4.242L54.21,2.874c-1.128-1.127-3.117-1.128-4.243,0L31.646,21.195
				c-0.941,0.941-2.197,1.46-3.536,1.46s-2.594-0.519-3.535-1.46l-6.631-6.632c-1.128-1.127-3.116-1.128-4.243,0L2.874,25.391
				C2.311,25.955,2,26.708,2,27.512s0.311,1.558,0.874,2.121l23.115,23.115c1.169,1.169,3.073,1.17,4.244,0l16.483-16.483
				l15.443-15.229c0.393-0.389,1.026-0.383,1.414,0.01c0.388,0.393,0.383,1.026-0.01,1.414L42.472,43.335L31.646,54.163
				C30.672,55.137,29.391,55.625,28.111,55.625z"/>
		</g>
	</g>
	<g>
		<path class="st0" d="M12.667,19.728c-0.256,0-0.512-0.098-0.707-0.293c-0.391-0.391-0.391-1.023,0-1.414l3.048-3.048
			c0.391-0.391,1.023-0.391,1.414,0s0.391,1.023,0,1.414l-3.048,3.048C13.179,19.63,12.923,19.728,12.667,19.728z"/>
	</g>
</g>
</svg>
