<?xml version="1.0" encoding="utf-8"?>
<!-- Generator: Adobe Illustrator 21.1.0, SVG Export Plug-In . SVG Version: 6.00 Build 0)  -->
<svg version="1.1" id="Слой_1" xmlns="http://www.w3.org/2000/svg" xmlns:xlink="http://www.w3.org/1999/xlink" x="0px" y="0px"
	 viewBox="0 0 49.79 49.79" style="enable-background:new 0 0 49.79 49.79;" xml:space="preserve">
<style type="text/css">
	.st0{fill:#9C4D47;}
</style>
<g>
	<path class="st0" d="M49.663,23.6c-0.254-0.423-0.802-0.562-1.229-0.307l-6.64,3.985l-5.026-5.027
		c-0.001-0.001-0.002-0.003-0.003-0.004l-9.224-9.224c0,0,0,0-0.001,0l-5.029-5.029l3.395-5.657l19.997,19.996
		c0.35,0.35,0.916,0.35,1.266,0s0.35-0.916,0-1.266L26.361,0.262c-0.195-0.195-0.467-0.287-0.742-0.256
		c-0.273,0.034-0.517,0.191-0.658,0.428l-4.344,7.239c-0.211,0.353-0.156,0.804,0.135,1.094l4.427,4.428l-11.103,2.975
		c-0.236,0.063-0.437,0.22-0.554,0.435L0.11,41.101c-0.191,0.349-0.129,0.781,0.152,1.063l7.364,7.364
		C7.798,49.7,8.027,49.79,8.259,49.79c0.146,0,0.294-0.036,0.429-0.11l24.497-13.413c0.215-0.117,0.372-0.317,0.435-0.554
		l2.976-11.103l4.428,4.428c0.173,0.173,0.401,0.263,0.633,0.263c0.158,0,0.317-0.042,0.461-0.128l7.239-4.345
		C49.78,24.573,49.917,24.024,49.663,23.6z M31.99,34.88L8.418,47.787l-2.575-2.575L20.446,30.61
		c0.685,0.438,1.468,0.662,2.253,0.662c1.072,0,2.144-0.408,2.959-1.224c1.63-1.631,1.629-4.284-0.001-5.915
		c-1.63-1.63-4.284-1.633-5.916-0.001c-0.764,0.764-1.198,1.778-1.224,2.858c-0.012,0.494,0.379,0.904,0.874,0.916
		c0.007,0.001,0.015,0.001,0.022,0.001c0.484,0,0.883-0.387,0.895-0.874c0.015-0.618,0.263-1.199,0.7-1.636
		c0.933-0.932,2.451-0.933,3.384,0.001c0.933,0.933,0.933,2.451,0.001,3.384c-0.933,0.934-2.452,0.933-3.385,0.001
		c-0.175-0.175-0.404-0.262-0.633-0.262c-0.229,0-0.458,0.087-0.633,0.262c0,0-0.001,0.001-0.001,0.001L4.577,43.947l-2.574-2.574
		L14.91,17.799l11.731-3.144l8.494,8.494L31.99,34.88z"/>
	<path class="st0" d="M45.517,47.999H15.684c-0.494,0-0.895,0.401-0.895,0.896s0.401,0.896,0.895,0.896h29.833
		c0.494,0,0.896-0.401,0.896-0.896S46.011,47.999,45.517,47.999z"/>
</g>
</svg>
