<?xml version="1.0" encoding="utf-8"?><svg xmlns="http://www.w3.org/2000/svg" xmlns:xlink="http://www.w3.org/1999/xlink"><symbol id="check" viewBox="0 0 67.912 55.625" xmlns="http://www.w3.org/2000/svg"><style>.ast0{fill:#9c4d47}</style><path class="ast0" d="M28.111 55.625a4.984 4.984 0 0 1-3.536-1.462L1.46 31.047C.519 30.106 0 28.851 0 27.512s.519-2.594 1.46-3.535l10.827-10.828c.941-.941 2.196-1.459 3.535-1.459s2.595.518 3.536 1.459l6.631 6.632c1.127 1.127 3.115 1.126 4.243 0L48.553 1.459C49.494.518 50.749 0 52.088 0s2.595.518 3.536 1.459l10.827 10.827a5.005 5.005 0 0 1 0 7.07.999.999 0 1 1-1.414-1.414 3.004 3.004 0 0 0 0-4.242L54.21 2.874c-1.128-1.127-3.117-1.128-4.243 0L31.646 21.195c-.941.941-2.197 1.46-3.536 1.46s-2.594-.519-3.535-1.46l-6.631-6.632c-1.128-1.127-3.116-1.128-4.243 0L2.874 25.391C2.311 25.955 2 26.708 2 27.512s.311 1.558.874 2.121l23.115 23.115a3.005 3.005 0 0 0 4.244 0l16.483-16.483a.999.999 0 1 1 1.414 1.414L31.646 54.163a4.986 4.986 0 0 1-3.535 1.462z"/><path class="ast0" d="M28.111 55.625a4.984 4.984 0 0 1-3.536-1.462L1.46 31.047C.519 30.106 0 28.851 0 27.512s.519-2.594 1.46-3.535l10.827-10.828c.941-.941 2.196-1.459 3.535-1.459s2.595.518 3.536 1.459l6.631 6.632c1.127 1.127 3.115 1.126 4.243 0L48.553 1.459C49.494.518 50.749 0 52.088 0s2.595.518 3.536 1.459l10.827 10.827a5.005 5.005 0 0 1 0 7.07.999.999 0 1 1-1.414-1.414 3.004 3.004 0 0 0 0-4.242L54.21 2.874c-1.128-1.127-3.117-1.128-4.243 0L31.646 21.195c-.941.941-2.197 1.46-3.536 1.46s-2.594-.519-3.535-1.46l-6.631-6.632c-1.128-1.127-3.116-1.128-4.243 0L2.874 25.391C2.311 25.955 2 26.708 2 27.512s.311 1.558.874 2.121l23.115 23.115a3.005 3.005 0 0 0 4.244 0l16.483-16.483 15.443-15.229a.999.999 0 1 1 1.404 1.424L42.472 43.335 31.646 54.163a4.986 4.986 0 0 1-3.535 1.462z"/><path class="ast0" d="M12.667 19.728a.999.999 0 0 1-.707-1.707l3.048-3.048a.999.999 0 1 1 1.414 1.414l-3.048 3.048a.997.997 0 0 1-.707.293z"/></symbol><symbol id="logo" viewBox="0 0 207.206 58.473" xmlns="http://www.w3.org/2000/svg"><style>.bst0{fill:#46527e}</style><path class="bst0" d="M97.394 17.473h1.023c.503 0 .874-.178 1.112-.534.167-.25.25-.525.25-.827 0-.424-.118-.758-.354-1.002-.236-.243-.56-.365-.972-.365h-1.95v4.269h.891v-1.541zm.001-1.99h.707c.278 0 .478.045.601.136s.185.242.185.452a.816.816 0 0 1-.084.404c-.103.174-.298.261-.583.261v.001h-.826v-1.254zm-16.42 3.644c.52 0 .942-.146 1.267-.44.297-.269.494-.648.589-1.136h-.892c-.054.262-.164.461-.326.598a.926.926 0 0 1-.619.205.906.906 0 0 1-.814-.44c-.163-.258-.244-.597-.244-1.017 0-.543.123-.943.369-1.201a.912.912 0 0 1 .689-.291c.322 0 .564.09.726.273.088.1.16.254.22.464h.89c0-.369-.149-.7-.446-.993-.349-.345-.814-.517-1.397-.517-.579 0-1.045.189-1.397.565-.377.404-.565.968-.565 1.689 0 .721.183 1.279.547 1.676.345.377.812.565 1.403.565zm7.973-.113h.892V15.5h1.291v-.755h-3.473v.755h1.29zm72.287 26.648V21.864h-4.972v9.015h-9.28v-9.015h-4.971v23.798h4.971V34.99h9.28v10.672zm3.712-28.783c0-.615-.226-1.067-.678-1.356-.333-.215-.75-.321-1.249-.321v-.457h-.892v.458c-.495 0-.916.109-1.261.327-.46.293-.69.743-.69 1.35 0 .615.23 1.066.69 1.356.341.214.762.321 1.261.321v.457h.892v-.457c.495 0 .912-.11 1.249-.327.452-.291.678-.741.678-1.351zm-2.819.987c-.294 0-.529-.059-.709-.178-.241-.163-.362-.432-.362-.809 0-.381.123-.652.369-.815.175-.115.409-.172.702-.172v1.974zm1.593-.172c-.174.115-.408.172-.701.172v-1.974c.293 0 .529.059.708.178.241.163.363.433.363.809 0 .381-.123.653-.37.815zm-58.052.441h1.576l.274.879h.969l-1.493-4.269h-1.034l-1.529 4.269h.94l.297-.879zm.798-2.428l.529 1.689h-1.089l.56-1.689zm16.673 3.282c.25.091.509.137.779.137.274 0 .535-.046.785-.137.365-.13.652-.343.862-.636.27-.373.405-.865.405-1.475 0-.606-.136-1.098-.41-1.474a1.758 1.758 0 0 0-.863-.636 2.238 2.238 0 0 0-.779-.137c-.274 0-.536.045-.786.137-.364.13-.652.342-.862.636-.27.372-.404.864-.404 1.474 0 .607.136 1.098.41 1.475.211.293.498.506.863.636zm.018-3.304c.206-.198.459-.297.761-.297.305 0 .558.099.761.297.266.258.399.656.399 1.195s-.133.937-.399 1.195c-.206.198-.46.297-.761.297-.306 0-.559-.099-.761-.297-.266-.258-.398-.656-.398-1.195s.132-.937.398-1.195zm49.951.283v3.045h.832v-4.269h-.939l-1.706 2.971v-2.971h-.833v4.269h.892zm-22.785 3.046l1.088-1.67h.577v1.67h.875v-4.269h-2.159a1.31 1.31 0 0 0-.981.398 1.243 1.243 0 0 0-.363.898c0 .344.113.638.339.88.203.214.447.355.737.423l-1.207 1.67h1.094zm.104-2.553a.58.58 0 0 1-.176-.444c0-.138.049-.258.143-.357.115-.119.275-.178.482-.178h1.112v1.143h-1.046c-.226 0-.398-.055-.515-.164zM78.043 40.757h8.783l1.524 4.905h5.403l-8.319-23.798h-5.761l-8.524 23.798h5.237l1.657-4.905zm4.441-13.524l2.95 9.413h-6.065l3.115-9.413zm116.673-9.098h1.576l.273.879h.97l-1.493-4.269h-1.034l-1.529 4.269h.94l.297-.879zm.796-2.428l.529 1.689h-1.088l.559-1.689zm-10.695.215l.78 3.092h.874l.809-3.092v3.092h.831v-4.269h-1.29l-.773 2.95-.773-2.95h-1.303v4.269h.833zm-8.719 3.092v-1.541h1.022c.504 0 .874-.178 1.112-.534.167-.25.25-.525.25-.827 0-.424-.118-.758-.354-1.002-.236-.243-.56-.365-.972-.365h-1.951v4.269h.893zm-.001-3.531h.707c.278 0 .478.045.601.136s.185.242.185.452a.817.817 0 0 1-.083.404c-.103.174-.297.261-.583.261v.001h-.827v-1.254zm19.874 25.356c-.906.762-2.055 1.144-3.447 1.144-1.988 0-3.502-.817-4.54-2.452-.907-1.437-1.359-3.327-1.359-5.669 0-3.027.685-5.259 2.055-6.695 1.038-1.083 2.32-1.624 3.844-1.624 1.79 0 3.138.508 4.044 1.525.485.552.895 1.414 1.226 2.585h4.973c0-2.055-.829-3.9-2.486-5.535-1.945-1.923-4.541-2.884-7.789-2.884-3.227 0-5.823 1.049-7.79 3.149-2.099 2.254-3.149 5.391-3.149 9.413 0 4.021 1.017 7.137 3.049 9.347 1.923 2.099 4.53 3.148 7.823 3.148 2.895 0 5.249-.817 7.06-2.452 1.657-1.503 2.751-3.613 3.281-6.331h-4.972c-.31 1.458-.917 2.569-1.823 3.331zm-16.671 4.822V21.863h-5.237l-9.513 16.573V21.864h-4.64v23.797h4.972l9.778-16.97v16.97zM143.31 19.014h.97l-1.493-4.269h-1.033l-1.53 4.269h.939l.298-.879h1.576l.273.879zm-1.612-1.618l.559-1.689.529 1.689h-1.088zm-26.083-.6l1.302-2.052h-1.029l-.779 1.379-.761-1.379h-1.065l1.303 2.087-1.38 2.183h1.041l.862-1.457.809 1.457h1.088zm21.823 25.187c1.503-2.077 2.254-4.817 2.254-8.22 0-3.381-.762-6.121-2.287-8.22-1.172-1.636-2.773-2.818-4.806-3.547a12.567 12.567 0 0 0-4.343-.762c-1.524 0-2.983.254-4.375.762-2.033.729-3.635 1.912-4.806 3.547-1.502 2.077-2.254 4.817-2.254 8.22 0 3.381.762 6.121 2.287 8.22 1.171 1.635 2.774 2.817 4.806 3.546 1.393.508 2.841.762 4.342.762 1.526 0 2.984-.254 4.376-.762 2.033-.728 3.635-1.911 4.806-3.546zm-4.939-1.559c-1.149 1.106-2.563 1.658-4.243 1.658-1.701 0-3.115-.552-4.242-1.658-1.48-1.435-2.22-3.656-2.22-6.661s.74-5.226 2.22-6.662c1.15-1.105 2.564-1.657 4.242-1.657 1.702 0 3.116.553 4.243 1.657 1.48 1.436 2.221 3.657 2.221 6.662s-.741 5.226-2.221 6.661zm1.752-21.517c.15-.052.295-.145.433-.28.12-.115.211-.247.274-.398.064-.151.096-.312.096-.482 0-.238-.047-.44-.138-.607a.955.955 0 0 0-.523-.428c.15-.076.261-.157.333-.244.127-.155.19-.364.19-.631 0-.277-.088-.515-.267-.713-.229-.253-.579-.38-1.047-.38h-2.075v4.27h1.808c.401 0 .706-.035.916-.107zm-1.869-3.426h1.023c.213 0 .376.034.487.104.112.069.167.187.167.354a.416.416 0 0 1-.184.368c-.107.072-.256.108-.446.108h-1.047v-.934zm.001 1.655h1.136c.182 0 .336.042.458.127.123.086.184.215.184.39 0 .214-.058.372-.175.473-.118.101-.287.151-.509.151h-1.094v-1.141zm-26.432 4.728H95.444v23.798h10.308c3.535 0 6.165-1.447 7.889-4.342 1.325-2.209 1.988-4.916 1.988-8.12 0-2.962-.607-5.414-1.823-7.359-1.657-2.651-4.276-3.977-7.855-3.977zm3.414 17.169c-.951 1.679-2.354 2.519-4.21 2.519h-4.839V25.974h4.773c1.524 0 2.706.387 3.546 1.16 1.281 1.193 1.923 3.337 1.923 6.43 0 2.232-.398 4.055-1.193 5.469zM.512 30.338l2.081 1.523V29.3c.001-.479-.128-.891-.5-1.164L.012 26.613v2.561c0 .478.128.891.5 1.164zm5.598-1.164v-2.561l-2.081 1.523c-.372.273-.501.685-.5 1.164v2.561l2.081-1.523c.372-.273.501-.686.5-1.164zm46.252.126v2.561l2.081-1.523c.372-.273.501-.686.5-1.164v-2.561l-2.081 1.523c-.372.273-.501.685-.5 1.164zm5.598-1.164l-2.081-1.523v2.561c-.001.478.128.891.5 1.164l2.081 1.523V29.3c0-.479-.128-.891-.5-1.164zM3.454 36.448l-.445-2.523c-.083-.471-.281-.855-.695-1.059L0 31.728l.445 2.523c.083.472.281.856.695 1.059l2.314 1.138zm.921-.162l1.785-1.861c.32-.333.375-.762.291-1.233l-.445-2.523-1.785 1.861c-.319.333-.374.762-.291 1.233l.445 2.523zm49.722-14.098l-1.786 1.862c-.32.333-.374.762-.291 1.233l.445 2.523 1.786-1.862c.32-.333.374-.762.291-1.233l-.445-2.523zm3.235.978l-2.314-1.139.445 2.522c.083.471.281.855.695 1.059l2.314 1.139-.445-2.522c-.083-.472-.281-.856-.695-1.059zM5.098 40.815l-.876-2.407c-.164-.45-.425-.794-.868-.922l-2.477-.719.876 2.407c.164.45.425.794.868.923l2.477.718zm.878-.32l1.436-2.142c.257-.384.236-.815.072-1.265l-.876-2.407-1.435 2.143c-.257.384-.237.815-.073 1.265l.876 2.406zm46.519-22.516l-1.434 2.142c-.257.384-.237.815-.073 1.265l.876 2.407 1.435-2.143c.257-.383.236-.814.072-1.264l-.876-2.407zm.88-.32l.876 2.407c.164.45.425.794.868.922l2.477.719-.876-2.407c-.164-.45-.425-.794-.868-.922l-2.477-.719zM6.195 42.613c-.239-.415-.556-.708-1.015-.758l-2.564-.278 1.281 2.218c.239.415.556.708 1.015.757l2.563.279-1.28-2.218zm2.09 1.75l1.042-2.36c.187-.422.092-.843-.148-1.258l-1.281-2.218-1.041 2.36c-.187.422-.092.843.148 1.258l1.28 2.218zm41.902-30.252l-1.041 2.36c-.187.422-.091.843.148 1.258l1.281 2.218 1.041-2.36c.187-.422.091-.844-.148-1.258l-1.281-2.218zm2.09 1.75c.24.415.557.708 1.016.758l2.564.278-1.281-2.218c-.239-.415-.556-.707-1.015-.757l-2.564-.279 1.28 2.218zM8.867 46.41c-.308-.367-.671-.6-1.131-.57l-2.574.171 1.647 1.962c.307.367.671.601 1.131.57l2.574-.17-1.647-1.963zm2.363 1.361l.616-2.503c.111-.449-.056-.847-.364-1.214l-1.647-1.962-.615 2.504c-.111.449.056.847.364 1.214l1.646 1.961zm36.012-37.068l-.615 2.505c-.111.448.056.846.364 1.213l1.646 1.962.616-2.504c.11-.449-.056-.847-.364-1.214l-1.647-1.962zm2.363 1.36c.308.367.671.601 1.131.57l2.573-.171-1.645-1.962c-.308-.367-.671-.601-1.132-.57l-2.573.171 1.646 1.962zM12.159 49.686c-.367-.308-.765-.474-1.213-.364l-2.505.616 1.962 1.646c.367.308.765.475 1.214.364l2.504-.615-1.962-1.647zm.203-4.421l-.171 2.573c-.031.461.202.824.569 1.132l1.962 1.647.172-2.575c.031-.46-.203-.823-.57-1.131l-1.962-1.646zm33.749-32.057l.171-2.573c.03-.461-.203-.824-.57-1.132L43.75 7.857l-.17 2.573c-.032.461.202.824.569 1.132l1.962 1.646zm.203-4.421c.367.308.765.475 1.214.365l2.504-.616L48.07 6.89c-.367-.308-.765-.475-1.213-.365l-2.505.616 1.962 1.646zM15.97 52.341c-.415-.239-.836-.335-1.258-.148l-2.36 1.041 2.218 1.281c.415.239.836.335 1.258.148l2.36-1.041-2.218-1.281zm1.649-3.108l-2.218-1.281.278 2.564c.05.459.343.777.758 1.016l2.218 1.28-.278-2.564c-.05-.459-.343-.776-.758-1.015zM40.853 9.242l2.218 1.28-.278-2.564c-.05-.459-.342-.776-.757-1.015l-2.218-1.281.278 2.565c.05.459.342.776.757 1.015zm1.65-3.11c.415.24.836.335 1.258.148l2.36-1.041-2.218-1.28c-.415-.24-.835-.335-1.258-.148l-2.36 1.041 2.218 1.28zm-22.32 48.162c-.45-.164-.882-.185-1.265.072l-2.143 1.435 2.407.876c.45.164.881.184 1.265-.073l2.143-1.434-2.407-.876zm1.086-3.348l-2.407-.876.719 2.477c.128.443.472.704.922.868l2.407.876-.719-2.477c-.128-.443-.472-.704-.922-.868zM37.204 7.527l2.407.876-.719-2.477c-.128-.443-.472-.704-.922-.868l-2.407-.876.718 2.477c.129.443.473.704.923.868zM38.29 4.18c.45.164.881.184 1.265-.073l2.143-1.435-2.407-.876c-.45-.164-.881-.185-1.265.072l-2.143 1.436 2.407.876zM24.671 55.485c-.471-.083-.9-.029-1.233.291l-1.862 1.786 2.522.445c.472.083.9.029 1.233-.291l1.863-1.786-2.523-.445zm.163-.921l2.523.445-1.139-2.314c-.204-.414-.587-.612-1.059-.695l-2.522-.445 1.138 2.314c.204.414.587.612 1.059.695zM33.639 3.91l-2.522-.445 1.138 2.314c.204.414.587.612 1.059.695l2.522.445-1.138-2.314c-.204-.414-.587-.612-1.059-.695zm.163-.922c.472.083.9.029 1.233-.291L36.896.912 34.373.467c-.472-.083-.9-.029-1.233.291l-1.861 1.785 2.523.445zM29.3 55.88c-.479-.001-.891.128-1.164.5l-1.523 2.081h2.561c.479.001.892-.128 1.164-.5l1.523-2.081H29.3zm0-.936h2.561l-1.523-2.082c-.272-.372-.685-.5-1.164-.5h-2.561l1.523 2.081c.273.373.685.501 1.164.501zm-.127-51.415h-2.561l1.523 2.081c.273.372.685.501 1.164.5h2.561l-1.523-2.081c-.272-.372-.685-.5-1.164-.5zm0-.935c.479 0 .892-.128 1.164-.501L31.86.012h-2.561c-.479 0-.891.128-1.164.5l-1.523 2.082h2.561zm3.692 53.565l-1.138 2.314 2.523-.445c.472-.083.855-.281 1.059-.695l1.138-2.314-2.523.445c-.472.083-.855.281-1.059.695zm.898-1.616l2.522-.445-1.862-1.785c-.333-.32-.761-.375-1.233-.291l-2.522.445 1.862 1.785c.333.319.762.374 1.233.291zM24.711 3.93l-2.523.445 1.862 1.786c.333.32.761.374 1.233.291l2.522-.445-1.861-1.786c-.333-.32-.761-.374-1.233-.291zm.897-1.616L26.746 0l-2.523.445c-.471.083-.855.281-1.059.695l-1.138 2.314 2.523-.445c.472-.083.856-.281 1.059-.695zm11.878 52.805l-.719 2.477 2.407-.876c.45-.164.794-.425.922-.868l.719-2.477-2.407.876c-.45.164-.794.425-.922.868zm.602-1.747l2.407-.876-2.143-1.436c-.384-.257-.815-.236-1.265-.072l-2.407.876 2.144 1.435c.383.257.814.237 1.264.073zM20.386 5.101l-2.407.876 2.143 1.435c.384.256.815.236 1.265.072l2.407-.876-2.143-1.435c-.384-.257-.815-.236-1.265-.072zm.601-1.747l.719-2.477-2.406.876c-.45.164-.794.425-.922.868l-.72 2.477 2.407-.876c.45-.164.794-.425.922-.868zm20.869 49.939l-.278 2.564 2.218-1.281c.415-.239.708-.556.758-1.015l.277-2.563-2.218 1.28c-.415.239-.707.557-.757 1.015zm2.507-3.106l-2.359-1.041c-.422-.187-.843-.091-1.258.148l-2.218 1.281 2.359 1.041c.422.187.843.091 1.258-.148l2.218-1.281zM14.11 8.285l2.36 1.041c.422.187.843.091 1.258-.148l2.218-1.281-2.36-1.041c-.422-.186-.843-.091-1.258.148L14.11 8.285zm2.509-3.105l.278-2.564-2.218 1.281c-.415.239-.708.556-.758 1.015l-.278 2.563 2.218-1.28c.415-.239.708-.557.758-1.015zM46.41 49.606c-.367.307-.601.671-.57 1.131l.171 2.574 1.962-1.646c.367-.308.6-.671.569-1.132l-.17-2.574-1.962 1.647zm-1.144-2.979c-.448-.11-.846.056-1.213.364l-1.962 1.647 2.505.615c.447.11.846-.057 1.213-.365l1.962-1.646-2.505-.615zM13.207 11.846c.447.11.846-.057 1.213-.365l1.962-1.646-2.505-.616c-.448-.11-.847.057-1.213.365l-1.962 1.646 2.505.616zm-1.144-2.979c.367-.308.601-.671.57-1.131l-.171-2.573L10.5 6.808c-.367.308-.6.671-.57 1.132l.171 2.573 1.962-1.646zm39.27 35.485l-1.646 1.962c-.308.367-.475.765-.364 1.214l.615 2.504 1.647-1.962c.308-.367.474-.765.364-1.213l-.616-2.505zm-3.291-.772c-.46-.032-.824.202-1.131.569l-1.647 1.962 2.574.171c.461.03.824-.203 1.132-.57l1.646-1.962-2.574-.17zM10.43 14.894c.461.031.824-.203 1.132-.57l1.646-1.962-2.573-.171c-.46-.031-.824.202-1.131.569l-1.647 1.962 2.573.172zm-3.289-.774l1.646-1.962c.308-.367.475-.765.365-1.213l-.616-2.504-1.646 1.962c-.308.367-.475.765-.365 1.213l.616 2.504zm46.481 26.165l-1.281 2.218c-.24.415-.335.836-.148 1.258l1.041 2.36 1.28-2.218c.24-.415.335-.836.148-1.258l-1.04-2.36zm-2.091 1.75l1.281-2.218-2.564.278c-.459.05-.777.343-1.016.758l-1.28 2.218 2.564-.278c.459-.05.776-.343 1.015-.758zM9.241 17.619l1.28-2.218-2.564.278c-.459.05-.776.343-1.015.758l-1.281 2.218 2.564-.279c.459-.05.776-.342 1.016-.757zm-4.39.568l1.281-2.218c.239-.414.335-.836.148-1.258l-1.041-2.36-1.28 2.218c-.24.415-.335.836-.148 1.258l1.04 2.36zM55.17 35.882l-.876 2.407c-.164.45-.184.881.073 1.264l1.435 2.144.876-2.407c.164-.45.185-.881-.072-1.265l-1.436-2.143zm-1.755 2.087l.876-2.407-2.477.719c-.443.128-.704.472-.868.922l-.876 2.407 2.477-.719c.443-.128.704-.472.868-.922zM5.058 20.503l-.876 2.407 2.477-.719c.443-.128.704-.472.868-.922l.876-2.407-2.477.719c-.443.128-.704.472-.868.922zm-1.755 2.086l.876-2.407c.164-.45.185-.881-.072-1.265l-1.435-2.143-.876 2.407c-.164.45-.184.881.072 1.265l1.435 2.143zm52.627 8.689l-.445 2.523c-.083.472-.029.9.291 1.233l1.785 1.861.445-2.522c.083-.472.029-.9-.291-1.233l-1.785-1.862zm-.921-.162l-2.314 1.138c-.414.204-.612.587-.695 1.059l-.445 2.522 2.314-1.138c.414-.204.612-.587.695-1.059l.445-2.522zm-51.545-3.76l2.314-1.138c.414-.204.612-.587.695-1.059l.445-2.522-2.314 1.138c-.414.204-.612.587-.695 1.059l-.445 2.522zm-.921-.163l.445-2.523c.083-.471.028-.9-.291-1.233L.912 21.575l-.445 2.523c-.083.472-.029.9.291 1.233l1.785 1.862z"/><path class="bst0" d="M51.395 29.236c0-12.361-9.954-22.443-22.159-22.443-12.205 0-22.159 10.082-22.159 22.443s9.955 22.443 22.159 22.443c12.205 0 22.159-10.082 22.159-22.443zm-7.342-15.583c-6.339-1.748-11.007.807-12.845 3.712 1.485-2.793 4.418-5.834 10.613-5.486.398.226.777.491 1.136.776.377.321.742.653 1.096.998zM30.69 7.636l-.005.047-.792 6.763-.444-6.825-.002-.034c.417.004.831.02 1.243.049zm-4.036.107l.002.035.479 7.484-1.888-7.269-.007-.027c.466-.09.938-.164 1.414-.223zm-4.36 1.026l1.957 8.123-3.363-7.583c.338-.146.685-.274 1.032-.403.125-.046.246-.101.372-.145l.002.008zm1.073 23.806h-.003l-6.663 6.614 5.415-6.569h-.001c-.204-.472-1.429-2.81.039-5.926-.731 3.215.375 5.194 1.2 5.869l.024-.001-.011.013c-.001-.001-.001-.001 0 0zM8.58 34.813l8.264-3.084-7.784 4.658a21.86 21.86 0 0 1-.48-1.574zm-.514-2.566a21.7 21.7 0 0 1-.16-1.565l9.031-.933-8.871 2.498zm-.164-4.388c.033-.521.083-1.037.152-1.547l8.996 1.865-9.148-.318zm.735-4.412A21.75 21.75 0 0 1 9.16 21.8l8.369 4.012-8.892-2.365zm1.624-4.166a21.8 21.8 0 0 1 .87-1.535l7.127 5.528-7.997-3.993zm2.777-4.148c.337-.397.688-.781 1.052-1.152l5.823 7.118-6.875-5.966zm3.395-3.218c.439-.333.89-.649 1.353-.949l4.056 7.822-5.409-6.873zm6.476 38.002c-.313-.099-.617-.214-.924-.327-.192-.071-.388-.135-.577-.211-5.248-2.104-9.49-6.253-11.754-11.471 2.957-2.167 5.984-4.405 8.938-6.568-.247-3.521 1.014-6.602 3.841-8.905a8.882 8.882 0 0 0-.835 1.056c-1.332 1.983-2.517 4.911-1.145 9.132l-8.169 8.726c1.934 2.881 5.737 6.696 12.326 8.327l3.715-14.405a3.372 3.372 0 0 1-2.059-.816 3.149 3.149 0 0 0 1.736.522 3.165 3.165 0 0 0 0-6.328c-.365 0-.71.074-1.037.188a3.351 3.351 0 0 1 1.487-.358c1.486 0 2.754.962 3.213 2.296l7.791-.074c.099.855.12 1.815-.259 2.507.125.862.908 3.725.899 4.175-.008.368-.088.459-.535.618.544-.265-.84-3.881-.998-4.795.725-2.382-4.75-3.768-6.217.814-.017.055-.275.495-.66.558 1.395.395 3.711-3.298 5.035-1.339.175.259.345.999.356 1.109-.482-1.898-2.515.002-3.994.241 1.273.14 2.592 1.096 3.958.086.296.127.618 1.465.588 2.207-.861.489-.42 1.465.17 1.642.662.199.089.565.569 1.407-.378.263-1.342.338-1.975.24-.288-.044-.507-.124-.573-.237-.042.178-.089.762-.472 1.31.172-.109 1.49-.304 1.643-.332 1.093-.193 1.082.731.267 1.043-.178.493.25.737.648 1.186.932 2.7-6.512 1.484-8.291-.719-.11.139-.374.537-.613.775 3.895 1.519 4.495 3.696 4.242 6.575.32-.065.636-.137.951-.216l.544-4.208 1.276.022c1.045.03 2.69-.506 2.809-1.154.355-.98.131-1.568-.113-1.755-.385-.296.881-.776.189-1.815 1.229-.56.013-1.197.37-2.089.94-.212 1.411-.606 1.18-1.491l-.694-2.955c.223-.054.355-.08.657-.408l-.847-.36c.529-.716.641-1.863.645-2.65l1.123-.011c-.077-.131-.156-.462-.241-.912.347-2.47-.337-6.001-1.238-7.326L32.6 26.761l6.319-4.629a6.464 6.464 0 0 0-1.257-1.439c-1.6-1.351-3.788-1.988-6.074-1.998l.147-.027c3.328-5.574 8.789-5.099 13.227-4.072a21.72 21.72 0 0 1 5.653 14.641c0 9.164-5.675 17.025-13.645 20.176a20.77 20.77 0 0 1-1.014.371c-.121.041-.24.086-.362.124-2.01.637-4.145.98-6.357.98a21.004 21.004 0 0 1-6.328-.971zm16.153-25.496c1.234 1.963.784 4.8.726 5.254l-.523-.011c.287-.926.535-4.057-.203-5.243zm-.35 13.576c-.631-.155-1.105.122-1.124-.255.266-.914 1.302-.103 1.124.255zm-6.709-18.193c3.558-.276 4.934 1.957 5.257 2.348l-.834.515c-.412-1.024-2.284-3.02-4.423-2.863z"/><path class="bst0" d="M39.61 22.148h.003l-.001-.001zM76.447 55.89c-.16.234-.363.557-.61.971h-.02l.06-.95V50.85h-.69v7.03h.67l3.58-5.06c.16-.233.357-.551.59-.95h.02l-.06.95v5.06h.69v-7.03h-.67l-3.56 5.04zm13.009-1.84h-4.07v-3.2h-.69v7.03h.69v-3.21h4.07v3.21h.7v-7.03h-.7zm3.871-2.58h2.52v6.41h.69v-6.41h2.53v-.62h-5.74zm9.609 3.18h2.67v-.619h-2.67V51.47h3.26v-.62h-3.95v7.03h4.14v-.62h-3.45zm9.341-3.8h-2.43v7.031h.691v-2.76h1.739c.634 0 1.154-.197 1.561-.59.406-.394.609-.915.609-1.561 0-.64-.203-1.153-.609-1.54-.408-.387-.927-.58-1.561-.58zm1.039 3.24c-.279.273-.656.41-1.13.41h-1.649v-3.03h1.659c.474 0 .849.133 1.125.4.277.267.415.633.415 1.1 0 .474-.14.847-.42 1.12zm9.25-.04h-4.069v-3.2h-.69v7.03h.69v-3.21h4.069v3.21h.7v-7.03h-.7zm5.4.6h2.67v-.619h-2.67V51.47h3.26v-.62h-3.95v7.03h4.139v-.62h-3.449zm6.07-3.18h2.521v6.41h.689v-6.41h2.53v-.62h-5.74zm8.001 3.259h2.84v.62h-2.84zm11.992-3.879l-1.85 4.13c-.108.24-.221.527-.34.86h-.021l-.34-.86-1.851-4.13h-.71l-.56 7.03h.691l.39-4.92c.02-.253.027-.587.02-1h.021l.38 1 1.65 3.61h.64l1.66-3.61c.106-.24.229-.566.37-.98h.02l.021.98.39 4.92h.69l-.561-7.03h-.71zm6.797 0l-2.58 7.03h.73l.8-2.24h2.83l.81 2.24h.73l-2.58-7.03h-.74zm-.84 4.19l.928-2.55c.081-.221.17-.527.271-.92h.02l.271.92.92 2.55h-2.41zm7.38 2.84h.69v-6.41h3v-.62h-3.69zm7.95-7.03l-2.58 7.03h.729l.801-2.24h2.829l.811 2.24h.729l-2.58-7.03h-.739zm-.839 4.19l.928-2.55c.081-.221.17-.527.27-.92h.021l.27.92.92 2.55h-2.409zm9.909-.858v-.02c.7-.327 1.05-.857 1.05-1.59 0-.561-.183-1.007-.55-1.341-.366-.333-.866-.5-1.5-.5-.781 0-1.45.23-2.01.69l.32.54a2.456 2.456 0 0 1 1.62-.6c.473 0 .827.121 1.06.364.234.244.35.549.35.915 0 .38-.14.693-.42.936-.28.243-.621.364-1.02.364h-.71v.601h.89c.426 0 .781.12 1.065.359.283.24.425.57.425.99 0 .447-.157.803-.47 1.07-.313.266-.714.4-1.2.4-.327 0-.643-.072-.95-.216a2.277 2.277 0 0 1-.76-.555l-.41.5c.246.288.565.51.956.673.389.16.788.24 1.195.24.679 0 1.243-.191 1.689-.575.446-.383.67-.889.67-1.515 0-.44-.117-.812-.35-1.115a1.71 1.71 0 0 0-.94-.615zm6.109 1.708c-.16.234-.363.557-.61.971h-.02l.06-.95V50.85h-.69v7.03h.671l3.579-5.06c.16-.233.358-.551.591-.95h.02l-.06.95v5.06h.689v-7.03h-.67l-3.56 5.04zm13.01-1.84h-4.069v-3.2h-.69v7.03h.69v-3.21h4.069v3.21h.7v-7.03h-.7z"/></symbol><symbol id="logo-footer" viewBox="0 0 207.206 58.473" xmlns="http://www.w3.org/2000/svg"><style>.cst0{fill:#46527e}</style><path class="cst0" d="M115.615 16.796l1.302-2.052h-1.029l-.779 1.379-.761-1.379h-1.065l1.303 2.087-1.38 2.183h1.041l.862-1.457.809 1.457h1.088zm-9.664 5.068H95.444v23.798h10.308c3.536 0 6.165-1.447 7.889-4.342 1.325-2.209 1.988-4.916 1.988-8.12 0-2.961-.607-5.413-1.823-7.359-1.657-2.651-4.276-3.977-7.855-3.977zm3.414 17.169c-.951 1.68-2.354 2.519-4.21 2.519h-4.839V25.974h4.772c1.525 0 2.707.387 3.546 1.16 1.281 1.193 1.923 3.337 1.923 6.43.001 2.232-.397 4.054-1.192 5.469zm23.234-17.037a12.567 12.567 0 0 0-4.343-.762c-1.524 0-2.983.254-4.375.762-2.033.729-3.635 1.911-4.806 3.547-1.503 2.077-2.254 4.817-2.254 8.22 0 3.381.762 6.121 2.287 8.22 1.171 1.635 2.773 2.818 4.806 3.546 1.393.508 2.84.762 4.342.762 1.525 0 2.984-.254 4.376-.762 2.033-.729 3.635-1.911 4.806-3.546 1.503-2.077 2.254-4.817 2.254-8.22 0-3.381-.762-6.121-2.287-8.22-1.171-1.635-2.773-2.818-4.806-3.547zm-.1 18.428c-1.149 1.106-2.563 1.658-4.243 1.658-1.701 0-3.115-.552-4.242-1.658-1.48-1.435-2.22-3.656-2.22-6.661 0-3.005.74-5.226 2.22-6.662 1.149-1.104 2.563-1.657 4.242-1.657 1.702 0 3.116.552 4.243 1.657 1.48 1.436 2.221 3.657 2.221 6.662s-.741 5.226-2.221 6.661zm17.825-21.41l1.088-1.67h.577v1.67h.874v-4.269h-2.159c-.396 0-.723.133-.981.398-.242.25-.363.55-.363.898 0 .345.113.638.339.88.203.214.447.354.737.423l-1.207 1.67h1.095zm.104-2.554a.578.578 0 0 1-.176-.444c0-.138.048-.257.143-.357.115-.119.276-.178.482-.178h1.112v1.142h-1.046c-.227.001-.399-.054-.515-.163zm14.519.419c0-.614-.226-1.067-.678-1.356-.333-.215-.75-.321-1.249-.321v-.458h-.892v.458c-.495 0-.915.109-1.261.327-.46.293-.69.743-.69 1.35 0 .615.23 1.067.69 1.356.341.214.761.321 1.261.321v.457h.892v-.457c.496 0 .912-.109 1.249-.327.452-.29.678-.74.678-1.35zm-2.819.987c-.293 0-.529-.059-.708-.179-.241-.162-.362-.432-.362-.809 0-.38.123-.652.369-.815.175-.115.408-.172.702-.172v1.975zm1.593-.172c-.174.115-.408.172-.701.172v-1.974c.293 0 .529.059.708.178.241.163.363.432.363.809 0 .381-.123.652-.37.815zm-84.047 4.17L71.15 45.662h5.237l1.657-4.905h8.783l1.524 4.905h5.403l-8.319-23.798h-5.761zm-.304 14.782l3.116-9.413 2.95 9.413H79.37zm119.786-18.511h1.576l.273.879h.97l-1.493-4.269h-1.034l-1.529 4.269h.94l.297-.879zm.797-2.428l.529 1.689h-1.088l.559-1.689zm-30.962 22.729V21.864h-4.64v23.798h4.971l9.779-16.971v16.971h4.64V21.864h-5.237zM80.977 19.127c.519 0 .941-.146 1.267-.44.297-.269.494-.648.589-1.136h-.893c-.055.262-.164.461-.326.598a.926.926 0 0 1-.619.205.905.905 0 0 1-.814-.44c-.163-.258-.244-.596-.244-1.017 0-.544.123-.943.369-1.201a.913.913 0 0 1 .689-.291c.321 0 .563.091.726.273.088.099.16.253.22.464h.892c0-.369-.149-.7-.446-.993-.349-.345-.814-.517-1.397-.517-.579 0-1.045.189-1.397.565-.377.404-.565.967-.565 1.689 0 .721.183 1.28.547 1.676.344.377.811.565 1.402.565zm75.287 11.752h-9.281v-9.015h-4.971v23.798h4.971V34.99h9.281v10.672h4.972V21.864h-4.972zm-22.013-11.972c.15-.051.295-.145.433-.28.119-.114.211-.247.274-.398.064-.151.096-.312.096-.482 0-.238-.046-.44-.137-.607a.947.947 0 0 0-.523-.428c.15-.075.261-.156.333-.244.127-.155.19-.364.19-.631a1.03 1.03 0 0 0-.267-.713c-.229-.254-.579-.38-1.047-.38h-2.075v4.269h1.808c.399.001.705-.035.915-.106zm-1.868-3.425h1.023c.214 0 .376.034.487.104.111.069.167.187.167.354a.416.416 0 0 1-.184.368c-.107.072-.256.108-.446.108h-1.046v-.934zm0 1.653h1.136c.182 0 .335.043.458.127.123.086.184.215.184.39 0 .214-.058.372-.175.473-.117.101-.287.151-.509.151h-1.094v-1.141zm-26.714 1h1.576l.274.879h.969l-1.493-4.269h-1.034l-1.529 4.269h.94l.297-.879zm.797-2.428l.529 1.689h-1.089l.56-1.689zm36.844 3.307h.969l-1.493-4.269h-1.033l-1.53 4.269h.939l.297-.879h1.576l.275.879zm-1.612-1.618l.559-1.689.529 1.689h-1.088zm-52.75 1.618h.892v-3.515h1.291v-.755h-3.473v.755h1.29zm8.447-1.541h1.023c.503 0 .874-.178 1.112-.534.167-.25.25-.525.25-.827 0-.425-.118-.758-.354-1.002-.236-.243-.56-.365-.972-.365h-1.95v4.269h.892v-1.541zm0-1.991h.708c.278 0 .478.045.601.136.122.091.185.242.185.452a.813.813 0 0 1-.084.404c-.103.174-.298.261-.583.261h-.826v-1.253zm25.745 3.508c.25.091.509.137.779.137.274 0 .535-.046.785-.137.365-.13.652-.343.862-.636.27-.373.405-.865.405-1.475 0-.607-.136-1.098-.41-1.474a1.752 1.752 0 0 0-.863-.636 2.238 2.238 0 0 0-.779-.137c-.274 0-.536.045-.785.137a1.76 1.76 0 0 0-.862.636c-.27.373-.404.864-.404 1.474 0 .607.136 1.098.41 1.475.209.293.497.506.862.636zm.017-3.306c.206-.198.46-.297.761-.297.305 0 .558.099.761.297.266.258.399.656.399 1.195s-.133.937-.399 1.195c-.206.198-.46.297-.761.297-.306 0-.559-.099-.761-.297-.266-.258-.398-.656-.398-1.195s.133-.937.398-1.195zm77.255 25.155c-.906.762-2.055 1.144-3.447 1.144-1.988 0-3.502-.818-4.54-2.452-.906-1.437-1.359-3.326-1.359-5.669 0-3.027.685-5.259 2.055-6.695 1.038-1.083 2.321-1.624 3.844-1.624 1.79 0 3.138.508 4.044 1.525.485.552.895 1.414 1.226 2.585h4.972c0-2.055-.828-3.9-2.486-5.535-1.945-1.922-4.541-2.884-7.789-2.884-3.226 0-5.823 1.049-7.79 3.149-2.099 2.254-3.149 5.391-3.149 9.413 0 4.021 1.017 7.137 3.049 9.347 1.923 2.099 4.53 3.148 7.823 3.148 2.895 0 5.248-.817 7.06-2.452 1.657-1.502 2.751-3.613 3.281-6.331h-4.972c-.309 1.458-.916 2.569-1.822 3.331zm-27.304-24.87v3.045h.832v-4.27h-.939l-1.706 2.973v-2.973h-.833v4.27h.892zm7.43 1.504h1.022c.503 0 .874-.178 1.112-.534.167-.25.25-.525.25-.827 0-.425-.118-.758-.354-1.002-.237-.243-.56-.365-.972-.365h-1.951v4.269h.892v-1.541zm0-1.991h.707c.278 0 .477.045.601.136.123.091.185.242.185.452a.814.814 0 0 1-.083.404c-.103.174-.297.261-.583.261h-.826v-1.253zm8.72.44l.78 3.092h.874l.809-3.092v3.092h.832v-4.27h-1.291l-.773 2.95-.772-2.95h-1.303v4.27h.832zM.512 30.338l2.081 1.523V29.3c.001-.479-.128-.891-.5-1.164L.012 26.613v2.561c-.001.479.128.892.5 1.164zm5.598-1.163v-2.561l-2.081 1.523c-.373.273-.501.685-.5 1.164v2.561l2.081-1.523c.373-.273.501-.686.5-1.164zm46.252.125v2.561l2.081-1.523c.373-.272.501-.685.5-1.164v-2.561l-2.081 1.523c-.373.272-.501.685-.5 1.164zm5.598-1.164l-2.081-1.523v2.561c-.001.478.128.891.5 1.164l2.081 1.523V29.3c0-.479-.128-.892-.5-1.164zM3.454 36.448l-.445-2.523c-.083-.471-.281-.855-.695-1.059L0 31.728l.445 2.523c.083.472.281.856.695 1.059l2.314 1.138zm.921-.162l1.785-1.862c.32-.333.374-.761.291-1.233l-.445-2.523-1.785 1.862c-.32.333-.374.761-.291 1.233l.445 2.523zm49.722-14.097l-1.786 1.862c-.319.333-.374.761-.291 1.233l.445 2.523 1.786-1.862c.319-.333.374-.761.291-1.233l-.445-2.523zm3.236.976l-2.314-1.138.445 2.522c.083.471.281.855.695 1.059l2.314 1.139-.445-2.522c-.083-.473-.281-.857-.695-1.06zM5.098 40.815l-.876-2.407c-.164-.45-.425-.794-.868-.922l-2.477-.719.876 2.407c.164.45.425.794.868.923l2.477.718zm.878-.32l1.435-2.143c.257-.384.236-.815.072-1.265l-.876-2.407-1.435 2.143c-.257.383-.236.815-.073 1.265l.877 2.407zm46.519-22.516l-1.435 2.143c-.257.383-.236.815-.073 1.265l.876 2.407 1.435-2.143c.257-.383.236-.815.072-1.264l-.875-2.408zm.88-.32l.876 2.407c.163.45.425.794.868.922l2.477.719-.876-2.407c-.164-.45-.425-.794-.868-.922l-2.477-.719zM6.194 42.613c-.239-.415-.556-.708-1.015-.758l-2.564-.278 1.281 2.218c.239.415.556.708 1.015.757l2.564.279-1.281-2.218zm2.091 1.75l1.041-2.36c.186-.422.091-.843-.148-1.258l-1.281-2.218-1.041 2.36c-.186.422-.091.843.148 1.258l1.281 2.218zm41.902-30.252l-1.041 2.359c-.186.422-.091.843.148 1.258l1.281 2.218 1.041-2.36c.186-.422.091-.843-.148-1.258l-1.281-2.217zm2.091 1.75c.24.415.557.708 1.016.758l2.564.278-1.281-2.218c-.239-.415-.556-.708-1.015-.757l-2.564-.279 1.28 2.218zM8.867 46.411c-.308-.367-.671-.6-1.131-.57l-2.574.171 1.647 1.962c.307.367.671.601 1.131.57l2.574-.171-1.647-1.962zm2.363 1.36l.616-2.504c.11-.449-.057-.847-.364-1.214l-1.647-1.962-.615 2.504c-.11.448.057.847.364 1.214l1.646 1.962zm36.012-37.068l-.615 2.504c-.11.448.057.846.364 1.213l1.646 1.962.616-2.504c.11-.448-.057-.846-.364-1.214l-1.647-1.961zm2.364 1.361c.308.367.671.601 1.131.57l2.573-.171-1.646-1.963c-.308-.367-.671-.601-1.132-.57l-2.573.171 1.647 1.963zM12.159 49.687c-.367-.308-.765-.474-1.213-.364l-2.505.616 1.962 1.646c.367.308.765.475 1.214.364l2.504-.615-1.962-1.647zm.202-4.421l-.171 2.573c-.031.461.202.824.569 1.132l1.962 1.646.171-2.573c.031-.46-.203-.824-.57-1.131l-1.961-1.647zm33.75-32.058l.171-2.573c.031-.46-.203-.824-.57-1.132L43.75 7.857l-.171 2.573c-.031.46.203.824.569 1.132l1.963 1.646zm.203-4.421c.367.308.765.475 1.214.365l2.504-.616L48.07 6.89c-.367-.308-.765-.475-1.213-.365l-2.505.616 1.962 1.646zM15.97 52.341c-.415-.239-.836-.335-1.258-.148l-2.36 1.041 2.218 1.281c.415.239.836.335 1.258.148l2.36-1.041-2.218-1.281zm1.649-3.108l-2.218-1.281.278 2.564c.05.459.343.776.758 1.016l2.218 1.28-.278-2.564c-.049-.459-.343-.776-.758-1.015zM40.853 9.241l2.218 1.28-.278-2.564c-.05-.459-.343-.776-.757-1.015l-2.218-1.281.278 2.565c.05.459.343.776.757 1.015zm1.651-3.109c.415.24.836.335 1.258.148l2.36-1.041-2.218-1.28c-.415-.24-.836-.335-1.258-.148l-2.359 1.041 2.217 1.28zM20.183 54.294c-.45-.164-.882-.185-1.265.072l-2.143 1.435 2.407.876c.45.164.881.184 1.265-.073l2.143-1.435-2.407-.875zm1.085-3.348l-2.407-.876.719 2.477c.129.443.472.705.922.868l2.407.876-.719-2.477c-.128-.443-.472-.704-.922-.868zM37.205 7.527l2.407.876-.719-2.477c-.129-.443-.472-.705-.922-.868l-2.407-.876.719 2.477c.128.443.472.705.922.868zM38.29 4.18c.45.164.881.184 1.265-.073l2.143-1.435-2.407-.876c-.45-.164-.881-.185-1.265.072l-2.143 1.435 2.407.877zM24.672 55.486c-.471-.083-.9-.029-1.233.291l-1.862 1.786 2.522.445c.472.083.9.029 1.233-.291l1.861-1.786-2.521-.445zm.162-.922l2.523.445-1.138-2.314c-.204-.414-.587-.612-1.059-.695l-2.522-.445 1.138 2.314c.203.414.587.612 1.058.695zm8.805-50.655l-2.522-.445 1.139 2.314c.203.414.587.612 1.059.695l2.522.445-1.138-2.314c-.205-.414-.588-.612-1.06-.695zm.162-.921c.472.083.9.029 1.233-.291L36.895.912 34.372.467c-.472-.083-.9-.029-1.233.291l-1.861 1.785 2.523.445zM29.299 55.88c-.479-.001-.891.128-1.164.5l-1.523 2.081h2.561c.479.001.892-.128 1.164-.5l1.523-2.081h-2.561zm0-.936h2.561l-1.523-2.082c-.272-.372-.685-.5-1.164-.5h-2.561l1.523 2.081c.273.373.686.501 1.164.501zm-.125-51.415h-2.561l1.523 2.081c.272.373.685.501 1.164.5h2.561l-1.523-2.08c-.272-.372-.685-.501-1.164-.501zm0-.935c.479 0 .892-.128 1.164-.501L31.861.012H29.3c-.479 0-.891.128-1.164.5l-1.523 2.082h2.561zm3.692 53.565l-1.138 2.314 2.523-.445c.472-.083.855-.281 1.059-.695l1.138-2.314-2.523.445c-.472.083-.855.281-1.059.695zm.896-1.616l2.522-.445-1.861-1.785c-.333-.319-.761-.374-1.233-.291l-2.522.445 1.862 1.785c.333.319.761.374 1.232.291zM24.711 3.931l-2.523.445 1.862 1.786c.333.319.761.374 1.233.291l2.522-.445-1.861-1.786c-.333-.32-.761-.375-1.233-.291zm.897-1.617L26.746 0l-2.523.445c-.471.083-.855.281-1.059.695l-1.139 2.314 2.523-.445c.472-.083.856-.281 1.06-.695zm11.878 52.805l-.719 2.477 2.407-.876c.45-.164.794-.425.922-.868l.719-2.477-2.407.876c-.45.163-.794.425-.922.868zm.602-1.747l2.407-.876-2.143-1.435c-.384-.257-.815-.236-1.265-.072l-2.407.876 2.144 1.435c.383.256.814.236 1.264.072zM20.385 5.101l-2.407.876 2.143 1.435c.384.256.815.236 1.265.072l2.407-.876-2.143-1.435c-.383-.257-.815-.236-1.265-.072zm.603-1.748l.719-2.477-2.407.877c-.45.164-.794.425-.922.868l-.719 2.477 2.407-.876c.45-.164.793-.425.922-.869zm20.867 49.94l-.278 2.564 2.218-1.281c.415-.239.708-.556.758-1.015l.278-2.564-2.218 1.28c-.415.24-.708.558-.758 1.016zm2.508-3.106l-2.359-1.041c-.423-.186-.844-.091-1.258.148l-2.218 1.281 2.359 1.041c.423.186.844.091 1.258-.148l2.218-1.281zM14.11 8.285l2.36 1.041c.422.186.843.091 1.258-.148l2.218-1.281-2.36-1.041c-.422-.186-.843-.091-1.258.148L14.11 8.285zm2.509-3.106l.278-2.565-2.218 1.281c-.415.239-.708.556-.758 1.015l-.278 2.564 2.218-1.28c.415-.239.708-.556.758-1.015zM46.41 49.606c-.367.307-.601.671-.57 1.131l.171 2.574 1.962-1.646c.367-.308.6-.671.569-1.132l-.171-2.574-1.961 1.647zm-1.144-2.979c-.448-.11-.846.057-1.213.364l-1.962 1.647 2.505.615c.448.11.846-.057 1.213-.365l1.962-1.646-2.505-.615zM13.207 11.846c.448.11.846-.057 1.213-.365l1.962-1.646-2.505-.616c-.448-.11-.846.057-1.213.365l-1.962 1.646 2.505.616zm-1.144-2.979c.367-.308.601-.671.57-1.131l-.171-2.573L10.5 6.809c-.367.308-.6.671-.57 1.132l.171 2.573 1.962-1.647zm39.27 35.485l-1.646 1.962c-.308.367-.475.765-.364 1.214l.615 2.504 1.647-1.962c.308-.367.474-.765.364-1.213l-.616-2.505zm-3.29-.773c-.46-.031-.824.202-1.131.569l-1.647 1.962 2.574.171c.461.031.824-.203 1.132-.57l1.646-1.962-2.574-.17zM10.431 14.893c.46.031.824-.203 1.132-.57l1.646-1.962-2.573-.171c-.461-.031-.824.202-1.131.569l-1.647 1.962 2.573.172zm-3.29-.773l1.646-1.962c.308-.367.475-.765.365-1.213l-.616-2.504-1.646 1.962c-.308.367-.475.765-.365 1.213l.616 2.504zm46.481 26.165l-1.281 2.218c-.24.415-.335.836-.148 1.258l1.041 2.36 1.28-2.218c.24-.415.335-.836.148-1.258l-1.04-2.36zm-2.091 1.75l1.281-2.218-2.564.278c-.459.05-.776.343-1.016.758l-1.28 2.218 2.564-.278c.459-.05.776-.343 1.015-.758zM9.241 17.619l1.28-2.218-2.564.278c-.459.05-.776.343-1.015.758l-1.281 2.218 2.564-.279c.459-.049.776-.342 1.016-.757zm-4.39.568l1.281-2.218c.239-.414.335-.836.148-1.258l-1.041-2.36-1.28 2.218c-.24.415-.335.836-.148 1.258l1.04 2.36zM55.17 35.882l-.876 2.407c-.164.45-.184.881.073 1.264l1.435 2.144.876-2.407c.164-.45.185-.881-.072-1.265l-1.436-2.143zm-1.755 2.087l.876-2.407-2.477.719c-.443.129-.705.472-.868.922l-.876 2.407 2.477-.719c.443-.128.705-.472.868-.922zM5.058 20.502l-.876 2.408 2.477-.719c.443-.129.705-.472.868-.922l.876-2.407-2.476.718c-.444.129-.705.472-.869.922zm-1.755 2.087l.876-2.407c.164-.45.185-.881-.072-1.265l-1.435-2.143-.876 2.407c-.164.45-.184.881.072 1.265l1.435 2.143zm52.627 8.689l-.445 2.523c-.083.472-.029.9.291 1.233l1.785 1.861.445-2.522c.083-.472.029-.9-.291-1.233l-1.785-1.862zm-.921-.162l-2.314 1.139c-.414.203-.612.587-.695 1.059l-.445 2.522 2.314-1.138c.414-.204.612-.588.695-1.059l.445-2.523zm-51.545-3.76l2.314-1.138c.414-.204.612-.588.695-1.059l.445-2.522-2.314 1.138c-.414.204-.612.588-.695 1.059l-.445 2.522zm-.921-.163l.445-2.523c.083-.471.028-.9-.291-1.233L.912 21.575l-.445 2.523c-.083.472-.029.9.291 1.233l1.785 1.862z"/><path class="cst0" d="M51.395 29.237c0-12.362-9.954-22.443-22.159-22.443-12.204 0-22.159 10.082-22.159 22.443S17.032 51.68 29.236 51.68c12.205 0 22.159-10.082 22.159-22.443zm-7.342-15.584c-6.339-1.748-11.007.807-12.845 3.712 1.485-2.793 4.418-5.834 10.612-5.486.399.226.777.491 1.136.776.377.321.743.653 1.097.998zM30.69 7.636l-.005.047-.792 6.763-.444-6.826-.002-.034c.417.005.831.021 1.243.05zm-4.036.107l.002.035.479 7.484-1.888-7.269-.007-.027c.466-.089.938-.164 1.414-.223zm-4.36 1.026l1.957 8.123-3.364-7.583c.338-.146.685-.274 1.032-.403.125-.046.246-.101.372-.145l.003.008zm1.073 23.805h-.003l-6.663 6.614 5.415-6.569h-.001c-.204-.472-1.428-2.809.039-5.926-.731 3.215.375 5.194 1.199 5.868l.024-.001-.012.012.002.002zM8.58 34.813l8.264-3.084-7.784 4.657a21.488 21.488 0 0 1-.48-1.573zm-.514-2.566a21.816 21.816 0 0 1-.16-1.565l9.031-.933-8.871 2.498zm-.164-4.388c.033-.521.083-1.037.152-1.547l8.996 1.865-9.148-.318zm.735-4.412c.154-.558.327-1.107.523-1.647l8.369 4.012-8.892-2.365zm1.624-4.166c.27-.525.561-1.037.87-1.535l7.127 5.528-7.997-3.993zm2.777-4.148c.337-.397.688-.781 1.052-1.152l5.823 7.118-6.875-5.966zm3.394-3.217c.439-.333.89-.649 1.353-.949l4.056 7.822-5.409-6.873zm6.477 38.001c-.312-.098-.617-.214-.922-.326-.193-.071-.389-.136-.579-.212-5.247-2.104-9.489-6.253-11.754-11.47 2.957-2.167 5.984-4.405 8.938-6.568-.248-3.521 1.014-6.602 3.842-8.904a9.007 9.007 0 0 0-.835 1.056c-1.332 1.982-2.518 4.91-1.146 9.132l-8.169 8.726c1.934 2.882 5.736 6.696 12.326 8.327l3.714-14.405a3.368 3.368 0 0 1-2.058-.815 3.148 3.148 0 0 0 1.735.522 3.164 3.164 0 1 0 0-6.328c-.364 0-.708.074-1.034.187.45-.221.95-.357 1.484-.357 1.486 0 2.754.962 3.213 2.296l7.791-.074c.099.855.12 1.815-.259 2.507.125.862.908 3.725.899 4.175-.007.367-.087.459-.535.618.545-.265-.84-3.881-.997-4.795.725-2.381-4.75-3.768-6.217.814-.017.055-.275.495-.66.558 1.395.395 3.711-3.298 5.035-1.339.176.259.346 1 .357 1.109-.483-1.898-2.515.002-3.994.241 1.273.14 2.592 1.096 3.958.086.296.127.619 1.465.588 2.207-.861.489-.42 1.465.17 1.642.662.199.089.565.569 1.407-.378.263-1.342.337-1.975.24-.289-.044-.508-.124-.573-.237-.042.177-.089.761-.472 1.31.172-.109 1.491-.304 1.643-.332 1.093-.193 1.082.731.267 1.043-.178.492.251.737.648 1.186.932 2.7-6.512 1.484-8.291-.719-.11.138-.374.536-.613.775 3.895 1.52 4.495 3.696 4.242 6.575.32-.064.637-.137.951-.216l.544-4.208 1.276.022c1.045.031 2.69-.505 2.809-1.154.356-.98.131-1.568-.113-1.755-.385-.296.881-.776.189-1.815 1.23-.56.013-1.196.37-2.089.939-.211 1.41-.605 1.18-1.491l-.694-2.955c.222-.054.354-.08.657-.408l-.847-.36c.529-.716.64-1.863.644-2.65l1.123-.011c-.077-.131-.156-.461-.241-.912.346-2.47-.337-6.001-1.238-7.326L32.6 26.761l6.318-4.629a6.438 6.438 0 0 0-1.257-1.439c-1.6-1.352-3.788-1.988-6.074-1.998l.147-.027c3.328-5.574 8.79-5.099 13.227-4.072a21.72 21.72 0 0 1 5.653 14.641c0 9.168-5.679 17.031-13.654 20.18-.327.129-.658.25-.992.363-.127.043-.251.09-.379.13a21.016 21.016 0 0 1-6.354.979c-2.201 0-4.325-.342-6.326-.972zm16.153-25.496c1.234 1.963.784 4.8.726 5.253l-.523-.011c.287-.925.536-4.056-.203-5.242zm-.351 13.576c-.631-.155-1.105.121-1.124-.255.267-.914 1.303-.103 1.124.255zm-6.708-18.193c3.557-.276 4.933 1.957 5.256 2.349l-.834.515c-.411-1.025-2.282-3.021-4.422-2.864z"/><path class="cst0" d="M39.61 22.148h.003l-.002-.001z"/></symbol><symbol id="purse" viewBox="0 0 69.813 76.8" xmlns="http://www.w3.org/2000/svg"><style>.dst0{fill:#9c4d47}</style><path class="dst0" d="M34.906 76.8c-14.264 0-23.249-2.333-27.469-7.134-3.907-4.445-3.174-10.111-2.527-15.11.227-1.751.441-3.406.441-4.89 0-.542.439-.982.982-.982h2.001c.278-12.217 12.091-22.083 26.572-22.083s26.295 9.866 26.573 22.083h2.001c.542 0 .982.439.982.982 0 1.484.214 3.138.441 4.89.647 4.999 1.38 10.666-2.527 15.11-4.22 4.801-13.205 7.134-27.47 7.134zM7.291 50.648c-.064 1.321-.244 2.708-.432 4.16-.622 4.81-1.266 9.784 2.054 13.562 3.825 4.352 12.328 6.467 25.994 6.467 13.667 0 22.169-2.116 25.994-6.467 3.32-3.777 2.677-8.751 2.055-13.562-.188-1.452-.368-2.839-.432-4.16h-2.021a.982.982 0 0 1-.982-.982v-.542c0-11.336-11.042-20.559-24.614-20.559-13.571 0-24.613 9.223-24.613 20.559v.542a.982.982 0 0 1-.982.982H7.291zm19.412-32.005a1 1 0 0 1-.865-.499l-.548-.946c-3.269.252-6.47-1.411-8.126-4.279-2.373-4.112-.958-9.388 3.153-11.761a8.552 8.552 0 0 1 6.532-.86 8.556 8.556 0 0 1 5.228 4.011l.052.099c.14.285.147.641.001.923a7.113 7.113 0 0 0-.554 5.132 1.001 1.001 0 0 1-1.932.52 9.115 9.115 0 0 1 .46-6.053 6.552 6.552 0 0 0-3.773-2.701 6.561 6.561 0 0 0-5.014.66 6.618 6.618 0 0 0-2.42 9.029 6.647 6.647 0 0 0 6.771 3.223.996.996 0 0 1 1.023.486l.552.953a41.703 41.703 0 0 1 2.363-.17 1 1 0 1 1 .085 1.999 41.41 41.41 0 0 0-2.875.229 1.445 1.445 0 0 1-.113.005z"/><path class="dst0" d="M68.813 47.77H63.39a1 1 0 0 1-1-1c0-11.626-12.329-21.084-27.484-21.084-15.154 0-27.483 9.458-27.483 21.084a1 1 0 0 1-1 1H1a1 1 0 0 1-1-1c0-7.778 3.743-15.037 10.54-20.439 5.989-4.76 13.851-7.595 22.192-8.014l2.007-3.477c-1.85-2.707-2.012-6.309-.358-9.176 2.375-4.112 7.65-5.524 11.76-3.152a8.554 8.554 0 0 1 4.012 5.228 8.552 8.552 0 0 1-.859 6.533c-1.774 3.071-5.322 4.756-8.821 4.197a1 1 0 0 1-.829-1.146.996.996 0 0 1 1.146-.829 6.657 6.657 0 0 0 6.773-3.223 6.568 6.568 0 0 0 .66-5.015 6.569 6.569 0 0 0-3.081-4.014 6.618 6.618 0 0 0-9.028 2.419 6.655 6.655 0 0 0 .597 7.477 1 1 0 0 1 .09 1.13l-2.61 4.521a1.003 1.003 0 0 1-.829.5c-8.124.302-15.787 3.002-21.577 7.604C5.77 32.676 2.331 38.991 2.022 45.77H5.45c.67-12.267 13.626-22.084 29.456-22.084s28.786 9.817 29.457 22.084h3.428c-.309-6.778-3.747-13.093-9.761-17.874-5.122-4.07-11.58-6.626-18.676-7.392a1 1 0 1 1 .215-1.989c7.473.806 14.287 3.508 19.705 7.815 6.796 5.402 10.54 12.661 10.54 20.439a1.001 1.001 0 0 1-1.001 1.001z"/></symbol><symbol id="vol" viewBox="0 0 70.299 70.299" xmlns="http://www.w3.org/2000/svg"><style>.est0{fill:#9c4d47}</style><path class="est0" d="M65.299 70.299H5c-2.757 0-5-2.243-5-5V5c0-2.757 2.243-5 5-5h60.299c2.757 0 5 2.243 5 5v60.299c0 2.757-2.243 5-5 5zM5 2C3.346 2 2 3.346 2 5v60.299c0 1.654 1.346 3 3 3h60.299c1.654 0 3-1.346 3-3V5c0-1.654-1.346-3-3-3H5z"/><path class="est0" d="M17.483 64.709c-2.749 0-4.985-2.236-4.985-4.985s2.236-4.985 4.985-4.985 4.985 2.236 4.985 4.985-2.236 4.985-4.985 4.985zm0-8c-1.663 0-3.015 1.353-3.015 3.015s1.353 3.015 3.015 3.015 3.015-1.353 3.015-3.015-1.352-3.015-3.015-3.015zm17.666 8c-2.749 0-4.985-2.236-4.985-4.985s2.236-4.985 4.985-4.985 4.985 2.236 4.985 4.985-2.236 4.985-4.985 4.985zm0-8c-1.663 0-3.015 1.353-3.015 3.015s1.353 3.015 3.015 3.015 3.015-1.353 3.015-3.015-1.352-3.015-3.015-3.015zm17.666 8c-2.749 0-4.985-2.236-4.985-4.985s2.236-4.985 4.985-4.985 4.985 2.236 4.985 4.985-2.236 4.985-4.985 4.985zm0-8c-1.663 0-3.015 1.353-3.015 3.015s1.353 3.015 3.015 3.015 3.015-1.353 3.015-3.015-1.352-3.015-3.015-3.015zM20.483 31.263h-6c-2.757 0-5-2.243-5-5s2.243-5 5-5h6c2.757 0 5 2.243 5 5s-2.243 5-5 5zm-6-8c-1.654 0-3 1.346-3 3s1.346 3 3 3h6c1.654 0 3-1.346 3-3s-1.346-3-3-3h-6zm3 28.696a1 1 0 0 1-1-1V33.263a1 1 0 0 1 2 0V50.96a.999.999 0 0 1-1 .999z"/><path class="est0" d="M17.483 23.263a1 1 0 0 1-1-1V9.911a1 1 0 0 1 2 0v12.352a1 1 0 0 1-1 1zm3.667 4h-7.334a1 1 0 0 1 0-2h7.334a1 1 0 0 1 0 2zm16.999 14h-6c-2.757 0-5-2.243-5-5s2.243-5 5-5h6c2.757 0 5 2.243 5 5s-2.243 5-5 5zm-6-8c-1.654 0-3 1.346-3 3s1.346 3 3 3h6c1.654 0 3-1.346 3-3s-1.346-3-3-3h-6zm3 18.696a1 1 0 0 1-1-1v-7.696a1 1 0 0 1 2 0v7.696a1 1 0 0 1-1 1z"/><path class="est0" d="M35.149 33.263a1 1 0 0 1-1-1V9.911a1 1 0 0 1 2 0v22.352a1 1 0 0 1-1 1zm3.667 4h-7.334a1 1 0 0 1 0-2h7.334a1 1 0 0 1 0 2zm16.999-6h-6c-2.757 0-5-2.243-5-5s2.243-5 5-5h6c2.757 0 5 2.243 5 5s-2.243 5-5 5zm-6-8c-1.654 0-3 1.346-3 3s1.346 3 3 3h6c1.654 0 3-1.346 3-3s-1.346-3-3-3h-6zm3 28.696a1 1 0 0 1-1-1V33.263a1 1 0 0 1 2 0V50.96a.999.999 0 0 1-1 .999z"/><path class="est0" d="M52.815 23.263a1 1 0 0 1-1-1V9.911a1 1 0 0 1 2 0v12.352a1 1 0 0 1-1 1zm3.667 4h-7.334a1 1 0 0 1 0-2h7.334a1 1 0 0 1 0 2z"/></symbol></svg>