<?xml version="1.0" encoding="utf-8"?>
<!-- Generator: Adobe Illustrator 21.1.0, SVG Export Plug-In . SVG Version: 6.00 Build 0)  -->
<svg version="1.1" id="Слой_1" xmlns="http://www.w3.org/2000/svg" xmlns:xlink="http://www.w3.org/1999/xlink" x="0px" y="0px"
	 viewBox="0 0 70.299 70.299" style="enable-background:new 0 0 70.299 70.299;" xml:space="preserve">
<style type="text/css">
	.st0{fill:#9C4D47;}
</style>
<g>
	<g>
		<path class="st0" d="M65.299,70.299H5c-2.757,0-5-2.243-5-5V5c0-2.757,2.243-5,5-5h60.299c2.757,0,5,2.243,5,5v60.299
			C70.299,68.056,68.056,70.299,65.299,70.299z M5,2C3.346,2,2,3.346,2,5v60.299c0,1.654,1.346,3,3,3h60.299c1.654,0,3-1.346,3-3V5
			c0-1.654-1.346-3-3-3H5z"/>
	</g>
	<g>
		<path class="st0" d="M17.483,64.709c-2.749,0-4.985-2.236-4.985-4.985s2.236-4.985,4.985-4.985s4.985,2.236,4.985,4.985
			S20.232,64.709,17.483,64.709z M17.483,56.709c-1.663,0-3.015,1.353-3.015,3.015s1.353,3.015,3.015,3.015s3.015-1.353,3.015-3.015
			S19.146,56.709,17.483,56.709z"/>
	</g>
	<g>
		<path class="st0" d="M35.149,64.709c-2.749,0-4.985-2.236-4.985-4.985s2.236-4.985,4.985-4.985s4.985,2.236,4.985,4.985
			S37.898,64.709,35.149,64.709z M35.149,56.709c-1.663,0-3.015,1.353-3.015,3.015s1.353,3.015,3.015,3.015s3.015-1.353,3.015-3.015
			S36.812,56.709,35.149,56.709z"/>
	</g>
	<g>
		<path class="st0" d="M52.815,64.709c-2.749,0-4.985-2.236-4.985-4.985s2.236-4.985,4.985-4.985s4.985,2.236,4.985,4.985
			S55.564,64.709,52.815,64.709z M52.815,56.709c-1.663,0-3.015,1.353-3.015,3.015s1.353,3.015,3.015,3.015s3.015-1.353,3.015-3.015
			S54.478,56.709,52.815,56.709z"/>
	</g>
	<g>
		<path class="st0" d="M20.483,31.263h-6c-2.757,0-5-2.243-5-5s2.243-5,5-5h6c2.757,0,5,2.243,5,5S23.24,31.263,20.483,31.263z
			 M14.483,23.263c-1.654,0-3,1.346-3,3s1.346,3,3,3h6c1.654,0,3-1.346,3-3s-1.346-3-3-3H14.483z"/>
	</g>
	<g>
		<path class="st0" d="M17.483,51.959c-0.552,0-1-0.448-1-1V33.263c0-0.552,0.448-1,1-1s1,0.448,1,1v17.697
			C18.483,51.512,18.036,51.959,17.483,51.959z"/>
	</g>
	<g>
		<path class="st0" d="M17.483,23.263c-0.552,0-1-0.448-1-1V9.911c0-0.552,0.448-1,1-1s1,0.448,1,1v12.352
			C18.483,22.815,18.036,23.263,17.483,23.263z"/>
	</g>
	<g>
		<path class="st0" d="M21.15,27.263h-7.334c-0.552,0-1-0.448-1-1s0.448-1,1-1h7.334c0.552,0,1,0.448,1,1
			S21.703,27.263,21.15,27.263z"/>
	</g>
	<g>
		<path class="st0" d="M38.149,41.263h-6c-2.757,0-5-2.243-5-5s2.243-5,5-5h6c2.757,0,5,2.243,5,5S40.906,41.263,38.149,41.263z
			 M32.149,33.263c-1.654,0-3,1.346-3,3s1.346,3,3,3h6c1.654,0,3-1.346,3-3s-1.346-3-3-3H32.149z"/>
	</g>
	<g>
		<path class="st0" d="M35.149,51.959c-0.552,0-1-0.448-1-1v-7.696c0-0.552,0.448-1,1-1s1,0.448,1,1v7.696
			C36.149,51.512,35.702,51.959,35.149,51.959z"/>
	</g>
	<g>
		<path class="st0" d="M35.149,33.263c-0.552,0-1-0.448-1-1V9.911c0-0.552,0.448-1,1-1s1,0.448,1,1v22.352
			C36.149,32.815,35.702,33.263,35.149,33.263z"/>
	</g>
	<g>
		<path class="st0" d="M38.816,37.263h-7.334c-0.552,0-1-0.448-1-1s0.448-1,1-1h7.334c0.552,0,1,0.448,1,1
			S39.369,37.263,38.816,37.263z"/>
	</g>
	<g>
		<path class="st0" d="M55.815,31.263h-6c-2.757,0-5-2.243-5-5s2.243-5,5-5h6c2.757,0,5,2.243,5,5S58.572,31.263,55.815,31.263z
			 M49.815,23.263c-1.654,0-3,1.346-3,3s1.346,3,3,3h6c1.654,0,3-1.346,3-3s-1.346-3-3-3H49.815z"/>
	</g>
	<g>
		<path class="st0" d="M52.815,51.959c-0.552,0-1-0.448-1-1V33.263c0-0.552,0.448-1,1-1s1,0.448,1,1v17.697
			C53.815,51.512,53.368,51.959,52.815,51.959z"/>
	</g>
	<g>
		<path class="st0" d="M52.815,23.263c-0.552,0-1-0.448-1-1V9.911c0-0.552,0.448-1,1-1s1,0.448,1,1v12.352
			C53.815,22.815,53.368,23.263,52.815,23.263z"/>
	</g>
	<g>
		<path class="st0" d="M56.482,27.263h-7.334c-0.552,0-1-0.448-1-1s0.448-1,1-1h7.334c0.552,0,1,0.448,1,1
			S57.035,27.263,56.482,27.263z"/>
	</g>
</g>
</svg>
