<?xml version="1.0" encoding="utf-8"?>
<!-- Generator: Adobe Illustrator 21.1.0, SVG Export Plug-In . SVG Version: 6.00 Build 0)  -->
<svg version="1.1" id="Слой_1" xmlns="http://www.w3.org/2000/svg" xmlns:xlink="http://www.w3.org/1999/xlink" x="0px" y="0px"
	 viewBox="0 0 207.206 58.473" style="enable-background:new 0 0 207.206 58.473;" xml:space="preserve">
<style type="text/css">
	.st0{fill:#46527E;}
</style>
<g>
	<path class="st0" d="M97.394,17.473h1.023c0.503,0,0.874-0.178,1.112-0.534c0.167-0.25,0.25-0.525,0.25-0.827
		c0-0.424-0.118-0.758-0.354-1.002c-0.236-0.243-0.56-0.365-0.972-0.365h-1.95v4.269h0.891V17.473z M97.395,15.483h0.707
		c0.278,0,0.478,0.045,0.601,0.136s0.185,0.242,0.185,0.452c0,0.174-0.029,0.308-0.084,0.404c-0.103,0.174-0.298,0.261-0.583,0.261
		v0.001h-0.826V15.483z"/>
	<path class="st0" d="M80.975,19.127c0.52,0,0.942-0.146,1.267-0.44c0.297-0.269,0.494-0.648,0.589-1.136h-0.892
		c-0.054,0.262-0.164,0.461-0.326,0.598c-0.162,0.137-0.369,0.205-0.619,0.205c-0.356,0-0.628-0.147-0.814-0.44
		c-0.163-0.258-0.244-0.597-0.244-1.017c0-0.543,0.123-0.943,0.369-1.201c0.186-0.195,0.415-0.291,0.689-0.291
		c0.322,0,0.564,0.09,0.726,0.273c0.088,0.1,0.16,0.254,0.22,0.464h0.89c0-0.369-0.149-0.7-0.446-0.993
		c-0.349-0.345-0.814-0.517-1.397-0.517c-0.579,0-1.045,0.189-1.397,0.565c-0.377,0.404-0.565,0.968-0.565,1.689
		c0,0.721,0.183,1.279,0.547,1.676C79.917,18.939,80.384,19.127,80.975,19.127z"/>
	<polygon class="st0" points="88.948,19.014 89.84,19.014 89.84,15.5 91.131,15.5 91.131,14.745 87.658,14.745 87.658,15.5 
		88.948,15.5 	"/>
	<polygon class="st0" points="161.235,45.662 161.235,21.864 156.263,21.864 156.263,30.879 146.983,30.879 146.983,21.864 
		142.012,21.864 142.012,45.662 146.983,45.662 146.983,34.99 156.263,34.99 156.263,45.662 	"/>
	<path class="st0" d="M164.947,16.879c0-0.615-0.226-1.067-0.678-1.356c-0.333-0.215-0.75-0.321-1.249-0.321v-0.457h-0.892v0.458
		c-0.495,0-0.916,0.109-1.261,0.327c-0.46,0.293-0.69,0.743-0.69,1.35c0,0.615,0.23,1.066,0.69,1.356
		c0.341,0.214,0.762,0.321,1.261,0.321v0.457h0.892v-0.457c0.495,0,0.912-0.11,1.249-0.327
		C164.721,17.939,164.947,17.489,164.947,16.879z M162.128,17.866c-0.294,0-0.529-0.059-0.709-0.178
		c-0.241-0.163-0.362-0.432-0.362-0.809c0-0.381,0.123-0.652,0.369-0.815c0.175-0.115,0.409-0.172,0.702-0.172V17.866z
		 M163.721,17.694c-0.174,0.115-0.408,0.172-0.701,0.172v-1.974c0.293,0,0.529,0.059,0.708,0.178
		c0.241,0.163,0.363,0.433,0.363,0.809C164.091,17.26,163.968,17.532,163.721,17.694z"/>
	<path class="st0" d="M105.669,18.135h1.576l0.274,0.879h0.969l-1.493-4.269h-1.034l-1.529,4.269h0.94L105.669,18.135z
		 M106.467,15.707l0.529,1.689h-1.089L106.467,15.707z"/>
	<path class="st0" d="M123.14,18.989c0.25,0.091,0.509,0.137,0.779,0.137c0.274,0,0.535-0.046,0.785-0.137
		c0.365-0.13,0.652-0.343,0.862-0.636c0.27-0.373,0.405-0.865,0.405-1.475c0-0.606-0.136-1.098-0.41-1.474
		c-0.21-0.293-0.498-0.506-0.863-0.636c-0.25-0.092-0.51-0.137-0.779-0.137c-0.274,0-0.536,0.045-0.786,0.137
		c-0.364,0.13-0.652,0.342-0.862,0.636c-0.27,0.372-0.404,0.864-0.404,1.474c0,0.607,0.136,1.098,0.41,1.475
		C122.488,18.646,122.775,18.859,123.14,18.989z M123.158,15.685c0.206-0.198,0.459-0.297,0.761-0.297
		c0.305,0,0.558,0.099,0.761,0.297c0.266,0.258,0.399,0.656,0.399,1.195s-0.133,0.937-0.399,1.195
		c-0.206,0.198-0.46,0.297-0.761,0.297c-0.306,0-0.559-0.099-0.761-0.297c-0.266-0.258-0.398-0.656-0.398-1.195
		S122.892,15.943,123.158,15.685z"/>
	<polygon class="st0" points="173.109,15.968 173.109,19.013 173.941,19.013 173.941,14.744 173.002,14.744 171.296,17.715 
		171.296,14.744 170.463,14.744 170.463,19.013 171.355,19.013 	"/>
	<path class="st0" d="M150.324,19.014l1.088-1.67h0.577v1.67h0.874h0.001v-4.269h-2.159c-0.397,0-0.723,0.133-0.981,0.398
		c-0.242,0.249-0.363,0.549-0.363,0.898c0,0.344,0.113,0.638,0.339,0.88c0.203,0.214,0.447,0.355,0.737,0.423l-1.207,1.67H150.324z
		 M150.428,16.461c-0.117-0.11-0.176-0.258-0.176-0.444c0-0.138,0.049-0.258,0.143-0.357c0.115-0.119,0.275-0.178,0.482-0.178h1.112
		v1.142v0.001h-1.046C150.717,16.625,150.545,16.57,150.428,16.461z"/>
	<path class="st0" d="M78.043,40.757h8.783l1.524,4.905h5.403l-8.319-23.798h-5.761l-8.524,23.798h5.237L78.043,40.757z
		 M82.484,27.233l2.95,9.413h-6.065L82.484,27.233z"/>
	<path class="st0" d="M199.157,18.135h1.576l0.273,0.879h0.97l-1.493-4.269h-1.034l-1.529,4.269h0.94L199.157,18.135z
		 M199.953,15.707l0.529,1.689h-1.088L199.953,15.707z"/>
	<polygon class="st0" points="189.258,15.922 190.038,19.014 190.912,19.014 191.721,15.922 191.721,19.014 192.552,19.014 
		192.552,14.745 191.262,14.745 190.489,17.695 189.716,14.745 188.413,14.745 188.413,19.014 189.246,19.014 	"/>
	<path class="st0" d="M180.539,19.014v-1.541h1.022c0.504,0,0.874-0.178,1.112-0.534c0.167-0.25,0.25-0.525,0.25-0.827
		c0-0.424-0.118-0.758-0.354-1.002c-0.236-0.243-0.56-0.365-0.972-0.365h-1.951v4.269H180.539L180.539,19.014z M180.538,15.483
		h0.707c0.278,0,0.478,0.045,0.601,0.136s0.185,0.242,0.185,0.452c0,0.174-0.028,0.308-0.083,0.404
		c-0.103,0.174-0.297,0.261-0.583,0.261v0.001h-0.827V15.483z"/>
	<path class="st0" d="M200.412,40.839c-0.906,0.762-2.055,1.144-3.447,1.144c-1.988,0-3.502-0.817-4.54-2.452
		c-0.907-1.437-1.359-3.327-1.359-5.669c0-3.027,0.685-5.259,2.055-6.695c1.038-1.083,2.32-1.624,3.844-1.624
		c1.79,0,3.138,0.508,4.044,1.525c0.485,0.552,0.895,1.414,1.226,2.585h4.973c0-2.055-0.829-3.9-2.486-5.535
		c-1.945-1.923-4.541-2.884-7.789-2.884c-3.227,0-5.823,1.049-7.79,3.149c-2.099,2.254-3.149,5.391-3.149,9.413
		c0,4.021,1.017,7.137,3.049,9.347c1.923,2.099,4.53,3.148,7.823,3.148c2.895,0,5.249-0.817,7.06-2.452
		c1.657-1.503,2.751-3.613,3.281-6.331h-4.972C201.925,38.966,201.318,40.077,200.412,40.839z"/>
	<polygon class="st0" points="183.741,45.661 183.741,21.863 178.504,21.863 168.991,38.436 168.991,21.864 164.351,21.864 
		164.351,45.661 169.323,45.661 179.101,28.691 179.101,45.661 	"/>
	<path class="st0" d="M143.31,19.014h0.97l-1.493-4.269h-1.033l-1.53,4.269h0.939l0.298-0.879h1.576L143.31,19.014z M141.698,17.396
		l0.559-1.689l0.529,1.689H141.698z"/>
	<polygon class="st0" points="115.615,16.796 116.917,14.744 115.888,14.744 115.109,16.123 114.348,14.744 113.283,14.744 
		114.586,16.831 113.206,19.014 114.247,19.014 115.109,17.557 115.918,19.014 117.006,19.014 	"/>
	<path class="st0" d="M137.438,41.983c1.503-2.077,2.254-4.817,2.254-8.22c0-3.381-0.762-6.121-2.287-8.22
		c-1.172-1.636-2.773-2.818-4.806-3.547c-1.392-0.508-2.839-0.762-4.343-0.762c-1.524,0-2.983,0.254-4.375,0.762
		c-2.033,0.729-3.635,1.912-4.806,3.547c-1.502,2.077-2.254,4.817-2.254,8.22c0,3.381,0.762,6.121,2.287,8.22
		c1.171,1.635,2.774,2.817,4.806,3.546c1.393,0.508,2.841,0.762,4.342,0.762c1.526,0,2.984-0.254,4.376-0.762
		C134.665,44.801,136.267,43.618,137.438,41.983z M132.499,40.424c-1.149,1.106-2.563,1.658-4.243,1.658
		c-1.701,0-3.115-0.552-4.242-1.658c-1.48-1.435-2.22-3.656-2.22-6.661s0.74-5.226,2.22-6.662c1.15-1.105,2.564-1.657,4.242-1.657
		c1.702,0,3.116,0.553,4.243,1.657c1.48,1.436,2.221,3.657,2.221,6.662S133.979,38.989,132.499,40.424z"/>
	<path class="st0" d="M134.251,18.907c0.15-0.052,0.295-0.145,0.433-0.28c0.12-0.115,0.211-0.247,0.274-0.398
		c0.064-0.151,0.096-0.312,0.096-0.482c0-0.238-0.047-0.44-0.138-0.607c-0.106-0.193-0.282-0.337-0.523-0.428
		c0.15-0.076,0.261-0.157,0.333-0.244c0.127-0.155,0.19-0.364,0.19-0.631c0-0.277-0.088-0.515-0.267-0.713
		c-0.229-0.253-0.579-0.38-1.047-0.38h-2.075v4.27h1.808C133.736,19.014,134.041,18.979,134.251,18.907z M132.382,15.481h1.023
		c0.213,0,0.376,0.034,0.487,0.104c0.112,0.069,0.167,0.187,0.167,0.354c0,0.163-0.062,0.285-0.184,0.368
		c-0.107,0.072-0.256,0.108-0.446,0.108h-1.046h-0.001V15.481z M132.383,17.136h1.136c0.182,0,0.336,0.042,0.458,0.127
		c0.123,0.086,0.184,0.215,0.184,0.39c0,0.214-0.058,0.372-0.175,0.473c-0.118,0.101-0.287,0.151-0.509,0.151h-1.094V17.136z"/>
	<path class="st0" d="M105.951,21.864H95.444v23.798h10.308c3.535,0,6.165-1.447,7.889-4.342c1.325-2.209,1.988-4.916,1.988-8.12
		c0-2.962-0.607-5.414-1.823-7.359C112.149,23.19,109.53,21.864,105.951,21.864z M109.365,39.033
		c-0.951,1.679-2.354,2.519-4.21,2.519h-4.839V25.974h4.773c1.524,0,2.706,0.387,3.546,1.16c1.281,1.193,1.923,3.337,1.923,6.43
		C110.558,35.796,110.16,37.619,109.365,39.033z"/>
	<path class="st0" d="M0.512,30.338l2.081,1.523V29.3c0.001-0.479-0.128-0.891-0.5-1.164l-2.081-1.523v2.561
		C0.012,29.652,0.14,30.065,0.512,30.338z"/>
	<path class="st0" d="M6.11,29.174v-2.561l-2.081,1.523c-0.372,0.273-0.501,0.685-0.5,1.164v2.561l2.081-1.523
		C5.982,30.065,6.111,29.652,6.11,29.174z"/>
	<path class="st0" d="M52.362,29.3v2.561l2.081-1.523c0.372-0.273,0.501-0.686,0.5-1.164v-2.561l-2.081,1.523
		C52.49,28.409,52.361,28.821,52.362,29.3z"/>
	<path class="st0" d="M57.96,28.136l-2.081-1.523v2.561c-0.001,0.478,0.128,0.891,0.5,1.164l2.081,1.523V29.3
		C58.46,28.821,58.332,28.409,57.96,28.136z"/>
	<path class="st0" d="M3.454,36.448l-0.445-2.523c-0.083-0.471-0.281-0.855-0.695-1.059L0,31.728l0.445,2.523
		c0.083,0.472,0.281,0.856,0.695,1.059L3.454,36.448z"/>
	<path class="st0" d="M4.375,36.286l1.785-1.861c0.32-0.333,0.375-0.762,0.291-1.233l-0.445-2.523L4.221,32.53
		c-0.319,0.333-0.374,0.762-0.291,1.233L4.375,36.286z"/>
	<path class="st0" d="M54.097,22.188l-1.786,1.862c-0.32,0.333-0.374,0.762-0.291,1.233l0.445,2.523l1.786-1.862
		c0.32-0.333,0.374-0.762,0.291-1.233L54.097,22.188z"/>
	<path class="st0" d="M57.332,23.166l-2.314-1.139l0.445,2.522c0.083,0.471,0.281,0.855,0.695,1.059l2.314,1.139l-0.445-2.522
		C57.944,23.753,57.746,23.369,57.332,23.166z"/>
	<path class="st0" d="M5.098,40.815l-0.876-2.407c-0.164-0.45-0.425-0.794-0.868-0.922l-2.477-0.719l0.876,2.407
		c0.164,0.45,0.425,0.794,0.868,0.923L5.098,40.815z"/>
	<path class="st0" d="M5.976,40.495l1.436-2.142c0.257-0.384,0.236-0.815,0.072-1.265l-0.876-2.407l-1.435,2.143
		c-0.257,0.384-0.237,0.815-0.073,1.265L5.976,40.495z"/>
	<path class="st0" d="M52.495,17.979l-1.434,2.142c-0.257,0.384-0.237,0.815-0.073,1.265l0.876,2.407l1.435-2.143
		c0.257-0.383,0.236-0.814,0.072-1.264L52.495,17.979z"/>
	<path class="st0" d="M53.375,17.659l0.876,2.407c0.164,0.45,0.425,0.794,0.868,0.922l2.477,0.719L56.72,19.3
		c-0.164-0.45-0.425-0.794-0.868-0.922L53.375,17.659z"/>
	<path class="st0" d="M6.195,42.613c-0.239-0.415-0.556-0.708-1.015-0.758l-2.564-0.278l1.281,2.218
		c0.239,0.415,0.556,0.708,1.015,0.757l2.563,0.279L6.195,42.613z"/>
	<path class="st0" d="M8.285,44.363l1.042-2.36c0.187-0.422,0.092-0.843-0.148-1.258l-1.281-2.218l-1.041,2.36
		c-0.187,0.422-0.092,0.843,0.148,1.258L8.285,44.363z"/>
	<path class="st0" d="M50.187,14.111l-1.041,2.36c-0.187,0.422-0.091,0.843,0.148,1.258l1.281,2.218l1.041-2.36
		c0.187-0.422,0.091-0.844-0.148-1.258L50.187,14.111z"/>
	<path class="st0" d="M52.277,15.861c0.24,0.415,0.557,0.708,1.016,0.758l2.564,0.278l-1.281-2.218
		c-0.239-0.415-0.556-0.707-1.015-0.757l-2.564-0.279L52.277,15.861z"/>
	<path class="st0" d="M8.867,46.41c-0.308-0.367-0.671-0.6-1.131-0.57l-2.574,0.171l1.647,1.962c0.307,0.367,0.671,0.601,1.131,0.57
		l2.574-0.17L8.867,46.41z"/>
	<path class="st0" d="M11.23,47.771l0.616-2.503c0.111-0.449-0.056-0.847-0.364-1.214l-1.647-1.962L9.22,44.596
		c-0.111,0.449,0.056,0.847,0.364,1.214L11.23,47.771z"/>
	<path class="st0" d="M47.242,10.703l-0.615,2.505c-0.111,0.448,0.056,0.846,0.364,1.213l1.646,1.962l0.616-2.504
		c0.11-0.449-0.056-0.847-0.364-1.214L47.242,10.703z"/>
	<path class="st0" d="M49.605,12.063c0.308,0.367,0.671,0.601,1.131,0.57l2.573-0.171L51.664,10.5
		c-0.308-0.367-0.671-0.601-1.132-0.57l-2.573,0.171L49.605,12.063z"/>
	<path class="st0" d="M12.159,49.686c-0.367-0.308-0.765-0.474-1.213-0.364l-2.505,0.616l1.962,1.646
		c0.367,0.308,0.765,0.475,1.214,0.364l2.504-0.615L12.159,49.686z"/>
	<path class="st0" d="M12.362,45.265l-0.171,2.573c-0.031,0.461,0.202,0.824,0.569,1.132l1.962,1.647l0.172-2.575
		c0.031-0.46-0.203-0.823-0.57-1.131L12.362,45.265z"/>
	<path class="st0" d="M46.111,13.208l0.171-2.573c0.03-0.461-0.203-0.824-0.57-1.132L43.75,7.857l-0.17,2.573
		c-0.032,0.461,0.202,0.824,0.569,1.132L46.111,13.208z"/>
	<path class="st0" d="M46.314,8.787c0.367,0.308,0.765,0.475,1.214,0.365l2.504-0.616L48.07,6.89
		c-0.367-0.308-0.765-0.475-1.213-0.365l-2.505,0.616L46.314,8.787z"/>
	<path class="st0" d="M15.97,52.341c-0.415-0.239-0.836-0.335-1.258-0.148l-2.36,1.041l2.218,1.281
		c0.415,0.239,0.836,0.335,1.258,0.148l2.36-1.041L15.97,52.341z"/>
	<path class="st0" d="M17.619,49.233l-2.218-1.281l0.278,2.564c0.05,0.459,0.343,0.777,0.758,1.016l2.218,1.28l-0.278-2.564
		C18.327,49.789,18.034,49.472,17.619,49.233z"/>
	<path class="st0" d="M40.853,9.242l2.218,1.28l-0.278-2.564c-0.05-0.459-0.342-0.776-0.757-1.015l-2.218-1.281l0.278,2.565
		C40.146,8.686,40.438,9.003,40.853,9.242z"/>
	<path class="st0" d="M42.503,6.132c0.415,0.24,0.836,0.335,1.258,0.148l2.36-1.041l-2.218-1.28
		c-0.415-0.24-0.835-0.335-1.258-0.148l-2.36,1.041L42.503,6.132z"/>
	<path class="st0" d="M20.183,54.294c-0.45-0.164-0.882-0.185-1.265,0.072l-2.143,1.435l2.407,0.876
		c0.45,0.164,0.881,0.184,1.265-0.073l2.143-1.434L20.183,54.294z"/>
	<path class="st0" d="M21.269,50.946l-2.407-0.876l0.719,2.477c0.128,0.443,0.472,0.704,0.922,0.868l2.407,0.876l-0.719-2.477
		C22.063,51.371,21.719,51.11,21.269,50.946z"/>
	<path class="st0" d="M37.204,7.527l2.407,0.876l-0.719-2.477c-0.128-0.443-0.472-0.704-0.922-0.868l-2.407-0.876l0.718,2.477
		C36.41,7.102,36.754,7.363,37.204,7.527z"/>
	<path class="st0" d="M38.29,4.18c0.45,0.164,0.881,0.184,1.265-0.073l2.143-1.435l-2.407-0.876
		c-0.45-0.164-0.881-0.185-1.265,0.072l-2.143,1.436L38.29,4.18z"/>
	<path class="st0" d="M24.671,55.485c-0.471-0.083-0.9-0.029-1.233,0.291l-1.862,1.786l2.522,0.445
		c0.472,0.083,0.9,0.029,1.233-0.291l1.863-1.786L24.671,55.485z"/>
	<path class="st0" d="M24.834,54.564l2.523,0.445l-1.139-2.314c-0.204-0.414-0.587-0.612-1.059-0.695l-2.522-0.445l1.138,2.314
		C23.979,54.283,24.362,54.481,24.834,54.564z"/>
	<path class="st0" d="M33.639,3.91l-2.522-0.445l1.138,2.314c0.204,0.414,0.587,0.612,1.059,0.695l2.522,0.445l-1.138-2.314
		C34.494,4.191,34.111,3.993,33.639,3.91z"/>
	<path class="st0" d="M33.802,2.988c0.472,0.083,0.9,0.029,1.233-0.291l1.861-1.785l-2.523-0.445
		c-0.472-0.083-0.9-0.029-1.233,0.291l-1.861,1.785L33.802,2.988z"/>
	<path class="st0" d="M29.3,55.88c-0.479-0.001-0.891,0.128-1.164,0.5l-1.523,2.081h2.561c0.479,0.001,0.892-0.128,1.164-0.5
		l1.523-2.081H29.3z"/>
	<path class="st0" d="M29.3,54.944h2.561l-1.523-2.082c-0.272-0.372-0.685-0.5-1.164-0.5h-2.561l1.523,2.081
		C28.409,54.816,28.821,54.944,29.3,54.944z"/>
	<path class="st0" d="M29.173,3.529h-2.561l1.523,2.081c0.273,0.372,0.685,0.501,1.164,0.5h2.561l-1.523-2.081
		C30.065,3.657,29.652,3.529,29.173,3.529z"/>
	<path class="st0" d="M29.173,2.594c0.479,0,0.892-0.128,1.164-0.501l1.523-2.081h-2.561c-0.479,0-0.891,0.128-1.164,0.5
		l-1.523,2.082H29.173z"/>
	<path class="st0" d="M32.865,56.159l-1.138,2.314l2.523-0.445c0.472-0.083,0.855-0.281,1.059-0.695l1.138-2.314l-2.523,0.445
		C33.452,55.547,33.069,55.745,32.865,56.159z"/>
	<path class="st0" d="M33.763,54.543l2.522-0.445l-1.862-1.785c-0.333-0.32-0.761-0.375-1.233-0.291l-2.522,0.445l1.862,1.785
		C32.863,54.571,33.292,54.626,33.763,54.543z"/>
	<path class="st0" d="M24.711,3.93l-2.523,0.445l1.862,1.786c0.333,0.32,0.761,0.374,1.233,0.291l2.522-0.445l-1.861-1.786
		C25.611,3.901,25.183,3.847,24.711,3.93z"/>
	<path class="st0" d="M25.608,2.314L26.746,0l-2.523,0.445c-0.471,0.083-0.855,0.281-1.059,0.695l-1.138,2.314l2.523-0.445
		C25.021,2.926,25.405,2.728,25.608,2.314z"/>
	<path class="st0" d="M37.486,55.119l-0.719,2.477l2.407-0.876c0.45-0.164,0.794-0.425,0.922-0.868l0.719-2.477l-2.407,0.876
		C37.958,54.415,37.614,54.676,37.486,55.119z"/>
	<path class="st0" d="M38.088,53.372l2.407-0.876l-2.143-1.436c-0.384-0.257-0.815-0.236-1.265-0.072l-2.407,0.876l2.144,1.435
		C37.207,53.556,37.638,53.536,38.088,53.372z"/>
	<path class="st0" d="M20.386,5.101l-2.407,0.876l2.143,1.435c0.384,0.256,0.815,0.236,1.265,0.072l2.407-0.876l-2.143-1.435
		C21.267,4.916,20.836,4.937,20.386,5.101z"/>
	<path class="st0" d="M20.987,3.354l0.719-2.477L19.3,1.753c-0.45,0.164-0.794,0.425-0.922,0.868l-0.72,2.477l2.407-0.876
		C20.515,4.058,20.859,3.797,20.987,3.354z"/>
	<path class="st0" d="M41.856,53.293l-0.278,2.564l2.218-1.281c0.415-0.239,0.708-0.556,0.758-1.015l0.277-2.563l-2.218,1.28
		C42.198,52.517,41.906,52.835,41.856,53.293z"/>
	<path class="st0" d="M44.363,50.187l-2.359-1.041c-0.422-0.187-0.843-0.091-1.258,0.148l-2.218,1.281l2.359,1.041
		c0.422,0.187,0.843,0.091,1.258-0.148L44.363,50.187z"/>
	<path class="st0" d="M14.11,8.285l2.36,1.041c0.422,0.187,0.843,0.091,1.258-0.148l2.218-1.281l-2.36-1.041
		c-0.422-0.186-0.843-0.091-1.258,0.148L14.11,8.285z"/>
	<path class="st0" d="M16.619,5.18l0.278-2.564l-2.218,1.281c-0.415,0.239-0.708,0.556-0.758,1.015l-0.278,2.563l2.218-1.28
		C16.276,5.956,16.569,5.638,16.619,5.18z"/>
	<path class="st0" d="M46.41,49.606c-0.367,0.307-0.601,0.671-0.57,1.131l0.171,2.574l1.962-1.646
		c0.367-0.308,0.6-0.671,0.569-1.132l-0.17-2.574L46.41,49.606z"/>
	<path class="st0" d="M45.266,46.627c-0.448-0.11-0.846,0.056-1.213,0.364l-1.962,1.647l2.505,0.615
		c0.447,0.11,0.846-0.057,1.213-0.365l1.962-1.646L45.266,46.627z"/>
	<path class="st0" d="M13.207,11.846c0.447,0.11,0.846-0.057,1.213-0.365l1.962-1.646l-2.505-0.616
		c-0.448-0.11-0.847,0.057-1.213,0.365l-1.962,1.646L13.207,11.846z"/>
	<path class="st0" d="M12.063,8.867c0.367-0.308,0.601-0.671,0.57-1.131l-0.171-2.573L10.5,6.808C10.133,7.116,9.9,7.479,9.93,7.94
		l0.171,2.573L12.063,8.867z"/>
	<path class="st0" d="M51.333,44.352l-1.646,1.962c-0.308,0.367-0.475,0.765-0.364,1.214l0.615,2.504l1.647-1.962
		c0.308-0.367,0.474-0.765,0.364-1.213L51.333,44.352z"/>
	<path class="st0" d="M48.042,43.58c-0.46-0.032-0.824,0.202-1.131,0.569l-1.647,1.962l2.574,0.171
		c0.461,0.03,0.824-0.203,1.132-0.57l1.646-1.962L48.042,43.58z"/>
	<path class="st0" d="M10.43,14.894c0.461,0.031,0.824-0.203,1.132-0.57l1.646-1.962l-2.573-0.171
		c-0.46-0.031-0.824,0.202-1.131,0.569l-1.647,1.962L10.43,14.894z"/>
	<path class="st0" d="M7.141,14.12l1.646-1.962c0.308-0.367,0.475-0.765,0.365-1.213L8.536,8.441L6.89,10.403
		c-0.308,0.367-0.475,0.765-0.365,1.213L7.141,14.12z"/>
	<path class="st0" d="M53.622,40.285l-1.281,2.218c-0.24,0.415-0.335,0.836-0.148,1.258l1.041,2.36l1.28-2.218
		c0.24-0.415,0.335-0.836,0.148-1.258L53.622,40.285z"/>
	<path class="st0" d="M51.531,42.035l1.281-2.218l-2.564,0.278c-0.459,0.05-0.777,0.343-1.016,0.758l-1.28,2.218l2.564-0.278
		C50.975,42.743,51.292,42.45,51.531,42.035z"/>
	<path class="st0" d="M9.241,17.619l1.28-2.218l-2.564,0.278c-0.459,0.05-0.776,0.343-1.015,0.758l-1.281,2.218l2.564-0.279
		C8.684,18.326,9.001,18.034,9.241,17.619z"/>
	<path class="st0" d="M4.851,18.187l1.281-2.218c0.239-0.414,0.335-0.836,0.148-1.258l-1.041-2.36l-1.28,2.218
		c-0.24,0.415-0.335,0.836-0.148,1.258L4.851,18.187z"/>
	<path class="st0" d="M55.17,35.882l-0.876,2.407c-0.164,0.45-0.184,0.881,0.073,1.264l1.435,2.144l0.876-2.407
		c0.164-0.45,0.185-0.881-0.072-1.265L55.17,35.882z"/>
	<path class="st0" d="M53.415,37.969l0.876-2.407l-2.477,0.719c-0.443,0.128-0.704,0.472-0.868,0.922L50.07,39.61l2.477-0.719
		C52.99,38.763,53.251,38.419,53.415,37.969z"/>
	<path class="st0" d="M5.058,20.503L4.182,22.91l2.477-0.719c0.443-0.128,0.704-0.472,0.868-0.922l0.876-2.407l-2.477,0.719
		C5.483,19.709,5.222,20.053,5.058,20.503z"/>
	<path class="st0" d="M3.303,22.589l0.876-2.407c0.164-0.45,0.185-0.881-0.072-1.265l-1.435-2.143l-0.876,2.407
		c-0.164,0.45-0.184,0.881,0.072,1.265L3.303,22.589z"/>
	<path class="st0" d="M55.93,31.278l-0.445,2.523c-0.083,0.472-0.029,0.9,0.291,1.233l1.785,1.861l0.445-2.522
		c0.083-0.472,0.029-0.9-0.291-1.233L55.93,31.278z"/>
	<path class="st0" d="M55.009,31.116l-2.314,1.138c-0.414,0.204-0.612,0.587-0.695,1.059l-0.445,2.522l2.314-1.138
		c0.414-0.204,0.612-0.587,0.695-1.059L55.009,31.116z"/>
	<path class="st0" d="M3.464,27.356l2.314-1.138c0.414-0.204,0.612-0.587,0.695-1.059l0.445-2.522l-2.314,1.138
		c-0.414,0.204-0.612,0.587-0.695,1.059L3.464,27.356z"/>
	<path class="st0" d="M2.543,27.193l0.445-2.523c0.083-0.471,0.028-0.9-0.291-1.233l-1.785-1.862l-0.445,2.523
		c-0.083,0.472-0.029,0.9,0.291,1.233L2.543,27.193z"/>
	<path class="st0" d="M51.395,29.236c0-12.361-9.954-22.443-22.159-22.443c-12.205,0-22.159,10.082-22.159,22.443
		s9.955,22.443,22.159,22.443C41.441,51.679,51.395,41.597,51.395,29.236z M44.053,13.653c-6.339-1.748-11.007,0.807-12.845,3.712
		c1.485-2.793,4.418-5.834,10.613-5.486c0.398,0.226,0.777,0.491,1.136,0.776C43.334,12.976,43.699,13.308,44.053,13.653z
		 M30.69,7.636l-0.005,0.047l-0.792,6.763l-0.444-6.825l-0.002-0.034C29.864,7.591,30.278,7.607,30.69,7.636z M26.654,7.743
		l0.002,0.035l0.479,7.484l-1.888-7.269L25.24,7.966C25.706,7.876,26.178,7.802,26.654,7.743z M22.294,8.769l1.957,8.123
		l-3.363-7.583c0.338-0.146,0.685-0.274,1.032-0.403c0.125-0.046,0.246-0.101,0.372-0.145L22.294,8.769z M23.367,32.575h-0.003
		l-6.663,6.614l5.415-6.569h-0.001c-0.204-0.472-1.429-2.81,0.039-5.926c-0.731,3.215,0.375,5.194,1.2,5.869l0.024-0.001
		L23.367,32.575C23.366,32.574,23.366,32.574,23.367,32.575z M8.58,34.813l8.264-3.084L9.06,36.387
		C8.881,35.871,8.721,35.346,8.58,34.813z M8.066,32.247c-0.072-0.515-0.125-1.038-0.16-1.565l9.031-0.933L8.066,32.247z
		 M7.902,27.859c0.033-0.521,0.083-1.037,0.152-1.547l8.996,1.865L7.902,27.859z M8.637,23.447c0.154-0.558,0.327-1.108,0.523-1.647
		l8.369,4.012L8.637,23.447z M10.261,19.281c0.27-0.524,0.56-1.037,0.87-1.535l7.127,5.528L10.261,19.281z M13.038,15.133
		c0.337-0.397,0.688-0.781,1.052-1.152l5.823,7.118L13.038,15.133z M16.433,11.915c0.439-0.333,0.89-0.649,1.353-0.949l4.056,7.822
		L16.433,11.915z M22.909,49.917c-0.313-0.099-0.617-0.214-0.924-0.327c-0.192-0.071-0.388-0.135-0.577-0.211
		c-5.248-2.104-9.49-6.253-11.754-11.471c2.957-2.167,5.984-4.405,8.938-6.568c-0.247-3.521,1.014-6.602,3.841-8.905
		c-0.306,0.333-0.585,0.684-0.835,1.056c-1.332,1.983-2.517,4.911-1.145,9.132l-8.169,8.726c1.934,2.881,5.737,6.696,12.326,8.327
		l3.715-14.405c-0.786-0.029-1.496-0.339-2.059-0.816c0.499,0.328,1.094,0.522,1.736,0.522c1.747,0,3.164-1.417,3.164-3.164
		c0-1.747-1.417-3.164-3.164-3.164c-0.365,0-0.71,0.074-1.037,0.188c0.451-0.222,0.951-0.358,1.487-0.358
		c1.486,0,2.754,0.962,3.213,2.296l7.791-0.074c0.099,0.855,0.12,1.815-0.259,2.507c0.125,0.862,0.908,3.725,0.899,4.175
		c-0.008,0.368-0.088,0.459-0.535,0.618c0.544-0.265-0.84-3.881-0.998-4.795c0.725-2.382-4.75-3.768-6.217,0.814
		c-0.017,0.055-0.275,0.495-0.66,0.558c1.395,0.395,3.711-3.298,5.035-1.339c0.175,0.259,0.345,0.999,0.356,1.109
		c-0.482-1.898-2.515,0.002-3.994,0.241c1.273,0.14,2.592,1.096,3.958,0.086c0.296,0.127,0.618,1.465,0.588,2.207
		c-0.861,0.489-0.42,1.465,0.17,1.642c0.662,0.199,0.089,0.565,0.569,1.407c-0.378,0.263-1.342,0.338-1.975,0.24
		c-0.288-0.044-0.507-0.124-0.573-0.237c-0.042,0.178-0.089,0.762-0.472,1.31c0.172-0.109,1.49-0.304,1.643-0.332
		c1.093-0.193,1.082,0.731,0.267,1.043c-0.178,0.493,0.25,0.737,0.648,1.186c0.932,2.7-6.512,1.484-8.291-0.719
		c-0.11,0.139-0.374,0.537-0.613,0.775c3.895,1.519,4.495,3.696,4.242,6.575c0.32-0.065,0.636-0.137,0.951-0.216l0.544-4.208
		l1.276,0.022c1.045,0.03,2.69-0.506,2.809-1.154c0.355-0.98,0.131-1.568-0.113-1.755c-0.385-0.296,0.881-0.776,0.189-1.815
		c1.229-0.56,0.013-1.197,0.37-2.089c0.94-0.212,1.411-0.606,1.18-1.491l-0.694-2.955c0.223-0.054,0.355-0.08,0.657-0.408
		l-0.847-0.36c0.529-0.716,0.641-1.863,0.645-2.65l1.123-0.011c-0.077-0.131-0.156-0.462-0.241-0.912
		c0.347-2.47-0.337-6.001-1.238-7.326L32.6,26.761l6.319-4.629c-0.346-0.532-0.754-1.015-1.257-1.439
		c-1.6-1.351-3.788-1.988-6.074-1.998c0.048-0.009,0.098-0.018,0.147-0.027c3.328-5.574,8.789-5.099,13.227-4.072
		c3.506,3.859,5.653,9.004,5.653,14.641c0,9.164-5.675,17.025-13.645,20.176c-0.334,0.132-0.672,0.256-1.014,0.371
		c-0.121,0.041-0.24,0.086-0.362,0.124c-2.01,0.637-4.145,0.98-6.357,0.98C27.035,50.889,24.91,50.547,22.909,49.917z
		 M39.062,24.421c1.234,1.963,0.784,4.8,0.726,5.254l-0.523-0.011C39.552,28.738,39.8,25.607,39.062,24.421z M38.712,37.997
		c-0.631-0.155-1.105,0.122-1.124-0.255C37.854,36.828,38.89,37.639,38.712,37.997z M32.003,19.804
		c3.558-0.276,4.934,1.957,5.257,2.348l-0.834,0.515C36.014,21.643,34.142,19.647,32.003,19.804z"/>
	<polygon class="st0" points="39.61,22.148 39.613,22.148 39.612,22.147 	"/>
	<path class="st0" d="M76.447,55.89c-0.16,0.234-0.363,0.557-0.61,0.971h-0.02l0.06-0.95V50.85h-0.69v7.03h0.67l3.58-5.06
		c0.16-0.233,0.357-0.551,0.59-0.95h0.02l-0.06,0.95v5.06h0.69v-7.03h-0.67L76.447,55.89z"/>
	<polygon class="st0" points="89.456,54.05 85.386,54.05 85.386,50.85 84.696,50.85 84.696,57.88 85.386,57.88 85.386,54.67 
		89.456,54.67 89.456,57.88 90.156,57.88 90.156,50.85 89.456,50.85 	"/>
	<polygon class="st0" points="93.327,51.47 95.847,51.47 95.847,57.88 96.537,57.88 96.537,51.47 99.067,51.47 99.067,50.85 
		93.327,50.85 	"/>
	<polygon class="st0" points="102.936,54.65 105.606,54.65 105.606,54.031 102.936,54.031 102.936,51.47 106.196,51.47 
		106.196,50.85 102.246,50.85 102.246,57.88 106.386,57.88 106.386,57.26 102.936,57.26 	"/>
	<path class="st0" d="M112.277,50.85h-2.43v7.03v0.001h0.691v-2.76h1.739c0.634,0,1.154-0.197,1.561-0.59
		c0.406-0.394,0.609-0.915,0.609-1.561c0-0.64-0.203-1.153-0.609-1.54C113.43,51.043,112.911,50.85,112.277,50.85z M113.316,54.09
		c-0.279,0.273-0.656,0.41-1.13,0.41h-1.649v-3.03h1.659c0.474,0,0.849,0.133,1.125,0.4c0.277,0.267,0.415,0.633,0.415,1.1
		C113.736,53.444,113.596,53.817,113.316,54.09z"/>
	<polygon class="st0" points="122.566,54.05 118.497,54.05 118.497,50.85 117.807,50.85 117.807,57.88 118.497,57.88 118.497,54.67 
		122.566,54.67 122.566,57.88 123.266,57.88 123.266,50.85 122.566,50.85 	"/>
	<polygon class="st0" points="127.966,54.65 130.636,54.65 130.636,54.031 127.966,54.031 127.966,51.47 131.226,51.47 
		131.226,50.85 127.276,50.85 127.276,57.88 131.415,57.88 131.415,57.26 127.966,57.26 	"/>
	<polygon class="st0" points="134.036,51.47 136.557,51.47 136.557,57.88 137.246,57.88 137.246,51.47 139.776,51.47 139.776,50.85 
		134.036,50.85 	"/>
	<rect x="142.037" y="54.729" class="st0" width="2.84" height="0.62"/>
	<path class="st0" d="M154.029,50.85l-1.85,4.13c-0.108,0.24-0.221,0.527-0.34,0.86h-0.021l-0.34-0.86l-1.851-4.13h-0.71l-0.56,7.03
		h0.691l0.39-4.92c0.02-0.253,0.027-0.587,0.02-1h0.021l0.38,1l1.65,3.61h0.64l1.66-3.61c0.106-0.24,0.229-0.566,0.37-0.98h0.02
		l0.021,0.98l0.39,4.92h0.69l-0.561-7.03H154.029z"/>
	<path class="st0" d="M160.826,50.85l-2.58,7.03h0.73l0.8-2.24h2.83l0.81,2.24h0.73l-2.58-7.03H160.826z M159.986,55.04l0.928-2.55
		c0.081-0.221,0.17-0.527,0.271-0.92h0.02l0.271,0.92l0.92,2.55H159.986z"/>
	<polygon class="st0" points="167.366,57.88 168.056,57.88 168.056,51.47 171.056,51.47 171.056,50.85 167.366,50.85 	"/>
	<path class="st0" d="M175.316,50.85l-2.58,7.03h0.729l0.801-2.24h2.829l0.811,2.24h0.729l-2.58-7.03H175.316z M174.477,55.04
		l0.928-2.55c0.081-0.221,0.17-0.527,0.27-0.92h0.021l0.27,0.92l0.92,2.55H174.477z"/>
	<path class="st0" d="M184.386,54.182v-0.02c0.7-0.327,1.05-0.857,1.05-1.59c0-0.561-0.183-1.007-0.55-1.341
		c-0.366-0.333-0.866-0.5-1.5-0.5c-0.781,0-1.45,0.23-2.01,0.69l0.32,0.54c0.479-0.401,1.019-0.6,1.62-0.6
		c0.473,0,0.827,0.121,1.06,0.364c0.234,0.244,0.35,0.549,0.35,0.915c0,0.38-0.14,0.693-0.42,0.936
		c-0.28,0.243-0.621,0.364-1.02,0.364h-0.71v0.601h0.89c0.426,0,0.781,0.12,1.065,0.359c0.283,0.24,0.425,0.57,0.425,0.99
		c0,0.447-0.157,0.803-0.47,1.07c-0.313,0.266-0.714,0.4-1.2,0.4c-0.327,0-0.643-0.072-0.95-0.216
		c-0.307-0.143-0.56-0.328-0.76-0.555l-0.41,0.5c0.246,0.288,0.565,0.51,0.956,0.673c0.389,0.16,0.788,0.24,1.195,0.24
		c0.679,0,1.243-0.191,1.689-0.575c0.446-0.383,0.67-0.889,0.67-1.515c0-0.44-0.117-0.812-0.35-1.115
		C185.093,54.494,184.78,54.288,184.386,54.182z"/>
	<path class="st0" d="M190.495,55.89c-0.16,0.234-0.363,0.557-0.61,0.971h-0.02l0.06-0.95V50.85h-0.69v7.03h0.671l3.579-5.06
		c0.16-0.233,0.358-0.551,0.591-0.95h0.02l-0.06,0.95v5.06h0.689v-7.03h-0.67L190.495,55.89z"/>
	<polygon class="st0" points="203.505,54.05 199.436,54.05 199.436,50.85 198.746,50.85 198.746,57.88 199.436,57.88 199.436,54.67 
		203.505,54.67 203.505,57.88 204.205,57.88 204.205,50.85 203.505,50.85 	"/>
</g>
</svg>
